<?xml version="1.0" encoding="UTF-8" standalone="no"?>
<svg
   xmlns:dc="http://purl.org/dc/elements/1.1/"
   xmlns:cc="http://creativecommons.org/ns#"
   xmlns:rdf="http://www.w3.org/1999/02/22-rdf-syntax-ns#"
   xmlns:svg="http://www.w3.org/2000/svg"
   xmlns="http://www.w3.org/2000/svg"
   viewBox="0 0 768 307.276"
   height="307.276"
   width="768"
   xml:space="preserve"
   id="svg2"
   version="1.1"><metadata
     id="metadata8"><rdf:RDF><cc:Work
         rdf:about=""><dc:format>image/svg+xml</dc:format><dc:type
           rdf:resource="http://purl.org/dc/dcmitype/StillImage" /></cc:Work></rdf:RDF></metadata><defs
     id="defs6"><clipPath
       id="clipPath20"
       clipPathUnits="userSpaceOnUse"><path
         id="path18"
         d="M 0,230.457 H 576 V 0 H 0 Z" /></clipPath><clipPath
       id="clipPath88"
       clipPathUnits="userSpaceOnUse"><path
         id="path86"
         d="M 9.20796,46.6502 H 46.9032 V 26.9567 H 9.20796 Z" /></clipPath><clipPath
       id="clipPath108"
       clipPathUnits="userSpaceOnUse"><path
         id="path106"
         d="m 21.8349,57.9757 h 9.1055 v -6.5022 h -9.1055 z" /></clipPath><clipPath
       id="clipPath284"
       clipPathUnits="userSpaceOnUse"><path
         id="path282"
         d="M 0,230.457 H 576 V 0 H 0 Z" /></clipPath><clipPath
       id="clipPath324"
       clipPathUnits="userSpaceOnUse"><path
         id="path322"
         d="M 0,230.457 H 576 V 0 H 0 Z" /></clipPath><clipPath
       id="clipPath568"
       clipPathUnits="userSpaceOnUse"><path
         id="path566"
         d="M 0,230.457 H 576 V 0 H 0 Z" /></clipPath><clipPath
       id="clipPath596"
       clipPathUnits="userSpaceOnUse"><path
         id="path594"
         d="M 0,230.457 H 576 V 0 H 0 Z" /></clipPath></defs><g
     transform="matrix(1.3333333,0,0,-1.3333333,0,307.276)"
     id="g10"><path
       id="path12"
       style="fill:#c48dd8;fill-opacity:1;fill-rule:nonzero;stroke:none"
       d="M 0,0 H 576 V 230.457 H 0 Z" /><g
       id="g14"><g
         clip-path="url(#clipPath20)"
         id="g16"><g
           transform="translate(383.9678,77.9401)"
           id="g22"><path
             id="path24"
             style="fill:#7a2134;fill-opacity:1;fill-rule:nonzero;stroke:none"
             d="m 0,0 c 0,0 67.613,0.259 92.129,22.71 5.935,-10.064 15.215,-1.042 18,3.484 2.581,4.194 10.387,3.226 16.064,-2.71 5.678,-5.935 28.646,10.839 28.646,10.839 l 2.064,-82.064 -129.29,-1.291 -35.355,9.549 z" /></g><g
           transform="translate(151.4517,91.36)"
           id="g26"><path
             id="path28"
             style="fill:#7a2134;fill-opacity:1;fill-rule:nonzero;stroke:none"
             d="m 0,0 c 0,0 62.452,-13.936 108.129,16 15.742,-13.936 38.968,-13.678 60.903,-5.936 0,0 5.677,-11.613 46.452,-14.71 6.193,-2.257 59.613,-29.935 59.613,-29.935 l -1.291,-24.773 -178.838,-4.388 -83.613,43.096 z" /></g><g
           transform="translate(-6.4194,95.4245)"
           id="g30"><path
             id="path32"
             style="fill:#7a2134;fill-opacity:1;fill-rule:nonzero;stroke:none"
             d="m 0,0 c 0,0 53.419,12.581 51.291,26.903 0,0 14.709,-10.064 47.032,-1.935 -4.452,-9.097 16.064,-8.71 16.064,-8.71 0,0 1.549,-15.677 20.904,0.388 0,0 51.483,-57.872 131.612,-60.968 l -4.516,-50.839 -264.516,2.58 z" /></g><g
           transform="translate(27.8911,9.4977)"
           id="g34"><path
             id="path36"
             style="fill:#a39898;fill-opacity:1;fill-rule:nonzero;stroke:none"
             d="m 0,0 c 0,0 6.601,-2.04 15.256,2.263 6.629,3.218 8.743,9.287 8.743,9.287 0,0 0.724,-6.349 -7.871,-10.621 -9.462,-4.704 -15.08,-1.7 -15.08,-1.7 z" /></g><g
           transform="translate(4.6074,43.8737)"
           id="g38"><path
             id="path40"
             style="fill:#a39898;fill-opacity:1;fill-rule:nonzero;stroke:none"
             d="m 0,0 c 0,0 2.092,-3.673 18.184,4.326 13.775,6.924 12.965,12.07 12.646,12.483 -0.318,0.411 1.821,-2.592 1.821,-2.592 0,0 -1.074,-6.881 -12.678,-12.65 C 9.672,-3.554 3.466,-4.899 0.953,-2.604 Z" /></g><g
           transform="translate(4.6836,44.026)"
           id="g42"><path
             id="path44"
             style="fill:#91685c;fill-opacity:1;fill-rule:nonzero;stroke:none"
             d="m 0,0 c 0,0 -2.803,5.258 12.618,12.924 15.421,7.665 17.696,4.388 17.696,4.388 0,0 3.793,-5.26 -12.298,-13.259 C 1.924,-3.946 0,0 0,0" /></g><g
           transform="translate(7.7285,44.3239)"
           id="g46"><path
             id="path48"
             style="fill:#683c48;fill-opacity:1;fill-rule:nonzero;stroke:none"
             d="m 0,0 c 0,0 -0.719,4.734 11.532,10.825 12.252,6.09 14.635,3.588 14.635,3.588 0,0 0.318,5.556 -15.211,-2.658 C 0.517,6.376 -2.002,2.729 -1.064,0.307 Z" /></g><g
           transform="translate(18.7271,54.9215)"
           id="g50"><path
             id="path52"
             style="fill:#683c48;fill-opacity:1;fill-rule:nonzero;stroke:none"
             d="m 0,0 c 0,0 15.341,5.84 8.076,-2.713 0,0 8.033,5.096 6.561,6.91 C 13.165,6.013 0,0 0,0" /></g><g
           transform="translate(5.856,40.903)"
           id="g54"><path
             id="path56"
             style="fill:#91685c;fill-opacity:1;fill-rule:nonzero;stroke:none"
             d="m 0,0 c 0,0 5.794,-15.075 8.093,-18.306 3.027,-4.254 14.216,-13.153 14.216,-13.153 0,0 6.692,-2.146 15.409,2.49 7.285,4.344 8.606,9.448 8.606,9.448 0,0 -0.155,11.743 -2.427,16.428 l -1.566,3.84 c 0,0 -9.713,15.524 -10.802,16.309 C 31.509,17.164 31.114,11.001 18.861,4.53 3.296,-3.69 0,0 0,0" /></g><g
           transform="translate(15.1787,21.1559)"
           id="g58"><path
             id="path60"
             style="fill:#a39898;fill-opacity:1;fill-rule:nonzero;stroke:none"
             d="m 0,0 c 4.449,-1.152 11.506,-0.324 20.618,4.092 7.58,3.674 13.789,12.935 13.789,12.935 l -1.734,3.491 c 0,0 -0.205,-5.048 -14.185,-12.696 C 4.795,0.331 -2.139,3.041 -2.139,3.041 Z" /></g><g
           transform="translate(24.5269,45.3571)"
           id="g62"><path
             id="path64"
             style="fill:#683c48;fill-opacity:1;fill-rule:nonzero;stroke:none"
             d="m 0,0 9.194,-16.238 c 0,0 -12.955,-7.58 -20.787,-4.746 0,0 -7.106,14.369 -7.085,16.469 0,0 4.711,-2.941 18.678,4.515" /></g><g
           transform="translate(35.7417,25.32)"
           id="g66"><path
             id="path68"
             style="fill:#845e56;fill-opacity:1;fill-rule:nonzero;stroke:none"
             d="m 0,0 7.353,-13.453 c 0,0 -7.994,-4.41 -15.348,-2.156 -0.721,0.687 -10.369,8.015 -12.446,11.429 0,0 9.066,-2.258 20.441,4.18" /></g><g
           transform="translate(12.918,24.3268)"
           id="g70"><path
             id="path72"
             style="fill:#827777;fill-opacity:1;fill-rule:nonzero;stroke:none"
             d="m 0,0 c 0,0 5.533,-3.255 20.833,4.654 0.076,-0.076 1.332,-2.986 1.924,-3.641 0,0 -10.151,-6.111 -20.679,-4.199 0,0 -1.806,2.333 -2.078,3.186" /></g><g
           transform="translate(4.7744,43.8053)"
           id="g74"><path
             id="path76"
             style="fill:#827777;fill-opacity:1;fill-rule:nonzero;stroke:none"
             d="m 0,0 c 0,0 2.412,-3.476 18.184,4.364 0,0 0.589,-1.76 1.477,-2.743 0,0 -12.346,-7.392 -18.731,-4.522 z" /></g><g
           transform="translate(28.0508,9.4245)"
           id="g78"><path
             id="path80"
             style="fill:#827777;fill-opacity:1;fill-rule:nonzero;stroke:none"
             d="m 0,0 c 0,0 6.411,-1.887 15.12,2.442 0,0 0.373,-1.381 0.761,-1.474 C 15.881,0.968 5.698,-4.122 0,0" /></g><g
           id="g82"><g
             id="g84" /><g
             id="g96"><g
               style="opacity:0.80999798"
               id="g94"
               clip-path="url(#clipPath88)"><g
                 id="g92"
                 transform="translate(11.5806,26.9567)"><path
                   id="path90"
                   style="fill:#a35b70;fill-opacity:1;fill-rule:nonzero;stroke:none"
                   d="m 0,0 -1.742,3.339 c 0,0 -3.048,5.758 4.258,4.742 7.307,-1.017 8.855,-2.662 11.371,-1.307 2.516,1.355 4.113,8.709 5.371,10.258 1.202,1.48 6.097,3.436 11.226,0.29 5.129,-3.144 2.855,2.371 2.855,2.371 l 1.984,-2.951 z" /></g></g></g></g><g
           transform="translate(28.5405,38.4967)"
           id="g98"><path
             id="path100"
             style="fill:#844c5e;fill-opacity:1;fill-rule:nonzero;stroke:none"
             d="m 0,0 c 0,0 -1.839,-4.379 -3.508,-5.104 -1.708,-0.743 -15.726,5.128 -16.097,-0.807 l 2.452,-5.419 18.774,8.387 z" /></g><g
           id="g102"><g
             id="g104" /><g
             id="g116"><g
               style="opacity:0.75"
               id="g114"
               clip-path="url(#clipPath108)"><g
                 id="g112"
                 transform="translate(22.3228,53.2956)"><path
                   id="path110"
                   style="fill:#a35b70;fill-opacity:1;fill-rule:nonzero;stroke:none"
                   d="M 0,0 C 0,0 0.903,1 2.629,2.21 3.662,2.934 4.564,5.548 7.468,4.387 10.371,3.226 6.838,2.5 7.032,1.919 7.226,1.339 5.677,0.226 4.952,1.048 4.226,1.871 2.871,-0.113 2.871,-0.113 2.871,-0.113 -2.016,-4.032 0,0" /></g></g></g></g><g
           transform="translate(28.1611,54.07)"
           id="g118"><path
             id="path120"
             style="fill:#844c5e;fill-opacity:1;fill-rule:nonzero;stroke:none"
             d="m 0,0 c 0,0 2.064,3.273 -1.968,2.758 0,0 1.614,2.371 4.549,0.306 0,0 0.726,-0.435 -0.419,-1.113 C 1.016,1.273 1.194,1.145 1.194,1.145 1.194,1.145 1.291,0.226 0,0" /></g><g
           transform="translate(6.3315,45.6051)"
           id="g122"><path
             id="path124"
             style="fill:none;stroke:#000000;stroke-width:0.75;stroke-linecap:butt;stroke-linejoin:miter;stroke-miterlimit:10;stroke-dasharray:none;stroke-opacity:1"
             d="M 0,0 C 0,0 0.074,4.671 12.056,10.383 22.303,15.268 25.242,15.74 27.019,14.344 28.797,12.946 25.012,8.709 15.686,3.845 6.359,-1.02 0.198,-3.151 0,0 Z" /></g><g
           transform="translate(4.5166,44.2096)"
           id="g126"><path
             id="path128"
             style="fill:none;stroke:#000000;stroke-width:0.75;stroke-linecap:butt;stroke-linejoin:miter;stroke-miterlimit:10;stroke-dasharray:none;stroke-opacity:1"
             d="m 0,0 c 0,0 -2.377,5.089 12.998,12.77 16.441,8.213 17.68,4.038 17.68,4.038 0,0 2.886,-5.255 -12.663,-12.985 C 1.405,-4.433 0,0 0,0 Z" /></g><g
           transform="translate(35.1948,61.0172)"
           id="g130"><path
             id="path132"
             style="fill:none;stroke:#000000;stroke-width:0.75;stroke-linecap:butt;stroke-linejoin:miter;stroke-miterlimit:10;stroke-dasharray:none;stroke-opacity:1"
             d="m 0,0 c 12.288,-17.532 13,-19.116 14.936,-24.388 1.936,-5.27 1.82,-15.742 1.82,-15.742 0,0 0.716,-6.104 -8.671,-10.771 -9.386,-4.666 -14.781,-1 -14.781,-1 0,0 -9.982,7.618 -13.988,12.771 -4.006,5.154 -9.994,22.322 -9.994,22.322" /></g><g
           transform="translate(7.7129,44.1256)"
           id="g134"><path
             id="path136"
             style="fill:none;stroke:#000000;stroke-width:0.5;stroke-linecap:butt;stroke-linejoin:miter;stroke-miterlimit:10;stroke-dasharray:none;stroke-opacity:1"
             d="m 0,0 c 0,0 -0.917,4.751 11.395,10.947 12.313,6.198 14.621,3.772 14.621,3.772" /></g><g
           transform="translate(37.1973,58.2126)"
           id="g138"><path
             id="path140"
             style="fill:none;stroke:#000000;stroke-width:0.5;stroke-linecap:butt;stroke-linejoin:miter;stroke-miterlimit:10;stroke-dasharray:none;stroke-opacity:1"
             d="m 0,0 c 0,0 -0.022,-6.587 -14.689,-13.878 -13.532,-6.726 -16.861,-3.26 -16.861,-3.26" /></g><g
           transform="translate(27.8154,9.6501)"
           id="g142"><path
             id="path144"
             style="fill:none;stroke:#000000;stroke-width:0.25;stroke-linecap:butt;stroke-linejoin:miter;stroke-miterlimit:10;stroke-dasharray:none;stroke-opacity:1"
             d="m 0,0 c 0,0 6.143,-2.152 14.189,1.58 9.143,4.241 9.968,10.57 9.968,10.57" /></g><g
           transform="translate(15.1787,21.1559)"
           id="g146"><path
             id="path148"
             style="fill:none;stroke:#000000;stroke-width:0.25;stroke-linecap:butt;stroke-linejoin:miter;stroke-miterlimit:10;stroke-dasharray:none;stroke-opacity:1"
             d="M 0,0 C 0,0 8.184,-2.089 18.972,3.273 29.761,8.637 34.407,17.027 34.407,17.027" /></g><g
           transform="translate(12.8115,24.3883)"
           id="g150"><path
             id="path152"
             style="fill:none;stroke:#000000;stroke-width:0.25;stroke-linecap:butt;stroke-linejoin:miter;stroke-miterlimit:10;stroke-dasharray:none;stroke-opacity:1"
             d="m 0,0 c 0,0 6.433,-2.975 19.705,3.941 14.218,7.411 15.374,13.572 15.374,13.572" /></g><g
           transform="translate(7.7231,40.2536)"
           id="g154"><path
             id="path156"
             style="fill:none;stroke:#000000;stroke-width:0.5;stroke-linecap:butt;stroke-linejoin:miter;stroke-miterlimit:10;stroke-dasharray:none;stroke-opacity:1"
             d="M 0,0 C 0,0 5.551,-13.279 7.705,-16.39" /></g><g
           transform="translate(17.0156,20.9001)"
           id="g158"><path
             id="path160"
             style="fill:none;stroke:#000000;stroke-width:0.25;stroke-linecap:butt;stroke-linejoin:miter;stroke-miterlimit:10;stroke-dasharray:none;stroke-opacity:1"
             d="M 0,0 C 0.17,-0.123 8.752,-9.478 12.792,-11.685" /></g><g
           transform="translate(15.1055,41.2585)"
           id="g162"><path
             id="path164"
             style="fill:none;stroke:#000000;stroke-width:0.5;stroke-linecap:butt;stroke-linejoin:miter;stroke-miterlimit:10;stroke-dasharray:none;stroke-opacity:1"
             d="M 0,0 C 0,0 3.429,-10.567 7.341,-16.832" /></g><g
           transform="translate(24.3569,21.2711)"
           id="g166"><path
             id="path168"
             style="fill:none;stroke:#000000;stroke-width:0.25;stroke-linecap:butt;stroke-linejoin:miter;stroke-miterlimit:10;stroke-dasharray:none;stroke-opacity:1"
             d="M 0,0 C 0,0 5.993,-9.877 9.641,-12.168" /></g><g
           transform="translate(33.8267,28.9049)"
           id="g170"><path
             id="path172"
             style="fill:none;stroke:#000000;stroke-width:0.5;stroke-linecap:butt;stroke-linejoin:miter;stroke-miterlimit:10;stroke-dasharray:none;stroke-opacity:1"
             d="M 0,0 C -0.575,1.463 -9.216,16.552 -9.216,16.552" /></g><g
           transform="translate(35.7969,25.2477)"
           id="g174"><path
             id="path176"
             style="fill:none;stroke:#000000;stroke-width:0.25;stroke-linecap:butt;stroke-linejoin:miter;stroke-miterlimit:10;stroke-dasharray:none;stroke-opacity:1"
             d="M 0,0 C 0,0 6.988,-12.451 7.351,-13.487" /></g><g
           transform="translate(34.4585,52.817)"
           id="g178"><path
             id="path180"
             style="fill:none;stroke:#000000;stroke-width:0.5;stroke-linecap:butt;stroke-linejoin:miter;stroke-miterlimit:10;stroke-dasharray:none;stroke-opacity:1"
             d="M 0,0 C 0,0 8.773,-12.956 10.014,-16.063" /></g><g
           transform="translate(46.2886,33.8083)"
           id="g182"><path
             id="path184"
             style="fill:none;stroke:#000000;stroke-width:0.25;stroke-linecap:butt;stroke-linejoin:miter;stroke-miterlimit:10;stroke-dasharray:none;stroke-opacity:1"
             d="M 0,0 C 0,0 4.208,-13.482 4.042,-15.816" /></g><g
           transform="translate(24.23,60.2721)"
           id="g186"><path
             id="path188"
             style="fill:#828282;fill-opacity:1;fill-rule:nonzero;stroke:none"
             d="m 0,0 c 0,0 0.348,-0.4 0.521,-0.795 -0.188,-0.082 -0.63,-0.531 -0.333,-1.014 0,0 0.385,-0.497 0.486,-0.539 0.101,-0.041 0.453,-0.703 0.471,-0.969 0.018,-0.266 0.209,-0.813 0.282,-0.914 0.073,-0.102 0.292,-0.726 0.54,-0.695 0.248,0.031 0.257,-0.147 0.257,-0.147 0,0 -0.432,-0.803 -1.351,-0.696 0,0 -0.062,0.09 -0.02,0.146 0.027,0.082 0.095,0.273 0.095,0.273 l -0.609,0.985 c 0,0 -0.285,0.423 -0.963,0.097 l -0.069,-0.029 0.022,-0.049 -0.121,-0.046 -0.151,0.091 -0.215,-0.097 -0.096,0.026 -0.379,-0.166 c 0,0 -0.032,-0.035 -0.095,0.08 l -0.121,-0.061 0.04,-0.075 c 0,0 -0.151,-0.1 -0.241,0.081 l -0.469,-0.233 -0.026,-0.062 0.06,-0.11 -0.076,-0.026 0.363,-0.579 c 0,0 -0.143,-0.238 -0.518,-0.232 l -0.236,0.676 -0.074,-0.036 -0.051,0.126 c 0,0 -0.263,0.148 -0.198,0.444 l -0.071,0.131 0.06,0.029 -0.406,0.587 c 0,0 0.165,0.279 0.491,0.264 l 0.268,-0.661 0.086,0.034 0.022,-0.031 0.049,-0.111 0.512,0.238 c 0,0 -0.09,0.204 0.023,0.26 l 0.058,-0.1 0.118,0.07 -0.037,0.142 0.396,0.2 0.01,0.102 0.233,0.124 0.037,0.157 0.151,0.072 0.045,-0.026 c 0,0 0.573,0.252 0.387,0.977 -0.185,0.725 0.067,1.429 0.331,1.623 z" /></g><g
           transform="translate(24.23,60.2721)"
           id="g190"><path
             id="path192"
             style="fill:none;stroke:#020202;stroke-width:0.25;stroke-linecap:butt;stroke-linejoin:miter;stroke-miterlimit:10;stroke-dasharray:none;stroke-opacity:1"
             d="m 0,0 c 0,0 0.348,-0.4 0.521,-0.795 -0.188,-0.082 -0.63,-0.531 -0.333,-1.014 0,0 0.385,-0.497 0.486,-0.539 0.101,-0.041 0.453,-0.703 0.471,-0.969 0.018,-0.266 0.209,-0.813 0.282,-0.914 0.073,-0.102 0.292,-0.726 0.54,-0.695 0.248,0.031 0.257,-0.147 0.257,-0.147 0,0 -0.432,-0.803 -1.351,-0.696 0,0 -0.062,0.09 -0.02,0.146 0.027,0.082 0.095,0.273 0.095,0.273 l -0.609,0.985 c 0,0 -0.285,0.423 -0.963,0.097 l -0.069,-0.029 0.022,-0.049 -0.121,-0.046 -0.151,0.091 -0.215,-0.097 -0.096,0.026 -0.379,-0.166 c 0,0 -0.032,-0.035 -0.095,0.08 l -0.121,-0.061 0.04,-0.075 c 0,0 -0.151,-0.1 -0.241,0.081 l -0.469,-0.233 -0.026,-0.062 0.06,-0.11 -0.076,-0.026 0.363,-0.579 c 0,0 -0.143,-0.238 -0.518,-0.232 l -0.236,0.676 -0.074,-0.036 -0.051,0.126 c 0,0 -0.263,0.148 -0.198,0.444 l -0.071,0.131 0.06,0.029 -0.406,0.587 c 0,0 0.165,0.279 0.491,0.264 l 0.268,-0.661 0.086,0.034 0.022,-0.031 0.049,-0.111 0.512,0.238 c 0,0 -0.09,0.204 0.023,0.26 l 0.058,-0.1 0.118,0.07 -0.037,0.142 0.396,0.2 0.01,0.102 0.233,0.124 0.037,0.157 0.151,0.072 0.045,-0.026 c 0,0 0.573,0.252 0.387,0.977 -0.185,0.725 0.067,1.429 0.331,1.623 z" /></g><g
           transform="translate(25.1782,54.9225)"
           id="g194"><path
             id="path196"
             style="fill:none;stroke:#020202;stroke-width:0.25;stroke-linecap:butt;stroke-linejoin:miter;stroke-miterlimit:10;stroke-dasharray:none;stroke-opacity:1"
             d="M 0,0 C 0,0 0.528,-0.028 0.864,0.462" /></g><g
           transform="translate(205.8066,41.0378)"
           id="g198"><path
             id="path200"
             style="fill:#efefef;fill-opacity:1;fill-rule:nonzero;stroke:none"
             d="M 0,0 C 0,0 -0.409,1.543 -0.613,1.516 -0.817,1.488 0.581,2.241 0.581,2.241 L 0.532,0.112 Z" /></g><g
           transform="translate(201.2622,45.4323)"
           id="g202"><path
             id="path204"
             style="fill:#eab8b0;fill-opacity:1;fill-rule:nonzero;stroke:none"
             d="m 0,0 c 0,0 -0.129,-2 -0.355,-2.226 -0.226,-0.225 0.064,-3.161 0.064,-3.161 0,0 -0.29,-0.903 -0.128,-1.193 C -0.258,-6.871 0.258,-8 0.258,-8 c 0,0 1.258,-2.839 1.323,-3.387 0.064,-0.549 2.741,0.065 2.741,0.065 l -0.064,1.129 0.258,0.645 -1.355,0.065 0.968,0.838 0.807,0.806 0.225,1.097 0.807,0.259 0.258,0.838 -0.42,0.194 L 7,-4.645 6.903,-3.968 5.193,-4.226 5.742,-2.936 5.354,-2.226 4.903,-2.839 4.871,-4.354 4.097,-3.29 3.645,-3.612 3.258,-4.742 2.226,-5.419 2,-5.097 l 0.903,1.355 2,1.613 -0.29,0.839 -2,-1.161 -1.484,-1.065 -0.193,2.065 -0.033,1.419 z" /></g><g
           transform="translate(200.9434,46.8434)"
           id="g206"><path
             id="path208"
             style="fill:#a3294c;fill-opacity:1;fill-rule:nonzero;stroke:none"
             d="m 0,0 0.387,-1.282 c 0,0 0.847,0.073 0.968,-0.774 0.121,-0.847 1.573,-1.548 1.645,-1.548 0.073,0 1.815,0.967 1.815,0.967 0,0 0.653,-0.121 0.459,-0.532 -0.193,-0.411 0.412,-0.145 0.412,-0.145 0,0 3.217,1.452 1.524,5.831 -0.436,0.943 -0.629,0.169 -0.629,0.169 0,0 -2.105,-1.645 -6.533,-2.395 z" /></g><g
           transform="translate(207.7905,49.7956)"
           id="g210"><path
             id="path212"
             style="fill:#bc627e;fill-opacity:1;fill-rule:nonzero;stroke:none"
             d="m 0,0 c 0,0 -1.274,-1.102 -3.727,-1.872 -1.312,-0.412 1.02,-1.798 2.52,-0.966 C 0.608,-1.83 0.258,-0.178 0,0" /></g><g
           transform="translate(202.0396,36.6422)"
           id="g214"><path
             id="path216"
             style="fill:none;stroke:#000000;stroke-width:0.5;stroke-linecap:butt;stroke-linejoin:miter;stroke-miterlimit:10;stroke-dasharray:none;stroke-opacity:1"
             d="m 0,0 c -0.323,0.722 0.438,1.175 0.438,1.175 0.568,0.123 1.275,0.888 1.275,0.888 0,0 1.717,1.059 1.786,1.083 C 3.568,3.168 5.826,3.883 6.114,4.125 6.402,4.366 6.011,4.851 5.849,4.793 5.688,4.735 2.911,4.217 2.485,4.217 2.059,4.217 1.241,3.283 1.229,3.41 1.217,3.537 0.86,3.444 1.137,3.722 c 0.277,0.276 0.495,0.967 0.634,1.036 0.138,0.069 1.29,1.003 1.29,1.003 0,0 1.267,0.725 1.037,1.428 C 3.868,7.893 3.038,7.154 3.003,7.144 2.969,7.132 2.358,6.798 2.358,6.798 2.358,6.798 1.84,6.164 1.125,5.922 0.411,5.68 0.319,5.104 0.319,5.104 c 0,0 -0.15,-0.138 -0.127,-0.058 0.023,0.645 -0.196,0.979 -0.138,1.141 0.057,0.162 0,1.245 0,1.245 0,0 0.415,0.264 -0.012,1.129 -0.426,0.864 -0.91,0.127 -0.91,0.127 C -0.914,7.108 -1.202,6.647 -1.283,6.602 -1.363,6.556 -1.352,5.945 -1.248,5.726 -1.145,5.507 -1.006,4.263 -1.087,4.078 -1.167,3.895 -1.133,3.353 -1.133,3.353 c 0,0 0.161,-0.334 0.023,-0.485 C -1.41,2.707 -1.26,2.2 -1.26,2.2 c 0,0 0.369,-0.53 0.404,-0.598 -0.012,-0.173 0.042,-0.604 0.526,-1.065 0.484,-0.461 0.994,-2.42 1.052,-2.772 0.03,-0.18 0.069,-0.434 0.069,-0.434 L 0.376,-8.941 c 0,0 1.874,-0.791 3.91,0.031 0,0 -1.106,5.668 -0.875,6.575 0.214,0.476 -0.031,0.814 -0.031,0.814 0,0 0.491,0.784 0.046,1.49 -0.062,0.399 0.169,0.599 0.169,0.599 0,0 0.338,0.615 0.184,1.121" /></g><g
           transform="translate(202.2314,41.6881)"
           id="g218"><path
             id="path220"
             style="fill:none;stroke:#000000;stroke-width:0.5;stroke-linecap:butt;stroke-linejoin:miter;stroke-miterlimit:10;stroke-dasharray:none;stroke-opacity:1"
             d="M 0,0 -1.302,-2.178" /></g><g
           transform="translate(203.2686,40.0524)"
           id="g222"><path
             id="path224"
             style="fill:none;stroke:#000000;stroke-width:0.5;stroke-linecap:butt;stroke-linejoin:miter;stroke-miterlimit:10;stroke-dasharray:none;stroke-opacity:1"
             d="M 0,0 C 0,0 -1.187,-1.268 -1.394,-1.325 -1.602,-1.383 -2.131,-1.659 -2.085,-1.809" /></g><g
           transform="translate(205.2886,39.6452)"
           id="g226"><path
             id="path228"
             style="fill:none;stroke:#000000;stroke-width:0.5;stroke-linecap:butt;stroke-linejoin:miter;stroke-miterlimit:10;stroke-dasharray:none;stroke-opacity:1"
             d="M 0,0 C 0,0 0.684,-0.092 0.714,0.062 0.745,0.215 1.605,0.107 1.836,0.223 2.066,0.338 2.389,-0.054 2.212,-0.33 2.036,-0.606 1.651,-0.922 0.999,-0.937 0.438,-1.275 -0.1,-1.498 -0.184,-1.405 c 0,0 -0.837,-0.715 -0.845,-0.777 -0.008,-0.061 0.061,-0.952 -0.246,-1.083" /></g><g
           transform="translate(204.7124,40.8815)"
           id="g230"><path
             id="path232"
             style="fill:none;stroke:#000000;stroke-width:0.5;stroke-linecap:butt;stroke-linejoin:miter;stroke-miterlimit:10;stroke-dasharray:none;stroke-opacity:1"
             d="M 0,0 C 0,0 0.185,0.661 0.246,0.876 0.308,1.091 0.415,1.613 0.584,1.675" /></g><g
           transform="translate(206.3872,43.2633)"
           id="g234"><path
             id="path236"
             style="fill:none;stroke:#000000;stroke-width:0.5;stroke-linecap:butt;stroke-linejoin:miter;stroke-miterlimit:10;stroke-dasharray:none;stroke-opacity:1"
             d="M 0,0 C 0,0 0.645,-0.062 0.476,-0.83 0.307,-1.598 -0.016,-2.104 -0.016,-2.104" /></g><g
           transform="translate(206.6177,39.7985)"
           id="g238"><path
             id="path240"
             style="fill:none;stroke:#000000;stroke-width:0.5;stroke-linecap:butt;stroke-linejoin:miter;stroke-miterlimit:10;stroke-dasharray:none;stroke-opacity:1"
             d="M 0,0 -0.1,0.335" /></g><g
           transform="translate(206.3179,41.1891)"
           id="g242"><path
             id="path244"
             style="fill:none;stroke:#000000;stroke-width:0.5;stroke-linecap:butt;stroke-linejoin:miter;stroke-miterlimit:10;stroke-dasharray:none;stroke-opacity:1"
             d="m 0,0 c -0.599,2.104 0.323,2.273 0.323,2.273 0,0 2.227,1.268 1.966,3.78 -0.261,2.511 -2.381,5.454 -2.381,5.454 0,0 -2.619,0.23 -5.246,-1.191 -0.139,-0.046 -0.561,-3.987 0.269,-5.999" /></g><g
           transform="translate(202.2544,44.2116)"
           id="g246"><path
             id="path248"
             style="fill:none;stroke:#000000;stroke-width:0.5;stroke-linecap:butt;stroke-linejoin:miter;stroke-miterlimit:10;stroke-dasharray:none;stroke-opacity:1"
             d="M 0,0 C 0,0 1.463,-1.014 1.844,-1.105" /></g><g
           transform="translate(200.9644,51.4362)"
           id="g250"><path
             id="path252"
             style="fill:none;stroke:#000000;stroke-width:0.25;stroke-linecap:butt;stroke-linejoin:miter;stroke-miterlimit:10;stroke-dasharray:none;stroke-opacity:1"
             d="M 0,0 C 0,0 2.93,-0.396 5.261,1.26" /></g><g
           transform="translate(204.9893,42.526)"
           id="g254"><path
             id="path256"
             style="fill:none;stroke:#000000;stroke-width:0.5;stroke-linecap:butt;stroke-linejoin:miter;stroke-miterlimit:10;stroke-dasharray:none;stroke-opacity:1"
             d="M 0,0 C 0,0 0.553,-0.369 0.799,-1.536" /></g><g
           transform="translate(201.0161,47.11)"
           id="g258"><path
             id="path260"
             style="fill:none;stroke:#000000;stroke-width:0.25;stroke-linecap:butt;stroke-linejoin:miter;stroke-miterlimit:10;stroke-dasharray:none;stroke-opacity:1"
             d="M 0,0 C 0,0 5.758,1.21 6.774,2.71" /></g><g
           transform="translate(204.6191,36.1188)"
           id="g262"><path
             id="path264"
             style="fill:#efefef;fill-opacity:1;fill-rule:nonzero;stroke:none"
             d="m 0,0 c 0,0 1.889,1.289 1.816,2.451 l 0.508,0.072 c 0,0 0.775,-1.911 2.831,-1.113 C 5.155,1.41 3.411,0 0,0" /></g><g
           transform="translate(206.3408,38.7008)"
           id="g266"><path
             id="path268"
             style="fill:none;stroke:#000000;stroke-width:0.5;stroke-linecap:butt;stroke-linejoin:miter;stroke-miterlimit:10;stroke-dasharray:none;stroke-opacity:1"
             d="m 0,0 c 0.303,-1.379 -1.083,-2.072 -1.727,-2.363 0,0 0.027,-0.228 0.019,-0.228 0,0 1.706,-0.318 5.047,1.041 l -0.079,0.2 c 0,0 -2.254,-0.463 -2.661,1.426" /></g><g
           transform="translate(-4.0967,20.1344)"
           id="g270"><path
             id="path272"
             style="fill:#7a2134;fill-opacity:1;fill-rule:nonzero;stroke:none"
             d="m 0,0 c 0,0 71.419,29.612 80.903,43.741 0.581,-11.419 4.258,-11.419 15.29,-10.258 2.129,0.775 2.516,-4.644 1.162,-5.806 C 96,26.516 131.806,44.516 175.548,13.161 194.903,6 254.516,24.387 264.581,30.968 c 10.064,6.58 24.774,12.193 29.032,6.386 2.903,1.355 25.161,-1.161 25.161,-1.161 0,0 17.033,0.387 25.162,16.646 C 357.483,62.903 390,41.806 390,41.806 c 0,0 62.903,-28.452 146.129,47.613 0,0 18.581,22.452 18.387,25.162 -0.194,2.709 14.903,39.29 41.42,37.354 L 597.097,-28.646 -0.194,-43.355 Z" /></g><g
           transform="translate(207.8872,49.6989)"
           id="g274"><path
             id="path276"
             style="fill:none;stroke:#000000;stroke-width:0.5;stroke-linecap:butt;stroke-linejoin:miter;stroke-miterlimit:10;stroke-dasharray:none;stroke-opacity:1"
             d="M 0,0 C -1.162,-3.678 -6.774,-2.759 -7.016,-2.71" /></g></g></g><g
       id="g278"><g
         clip-path="url(#clipPath284)"
         id="g280"><g
           transform="translate(505.1289,39.4889)"
           id="g286"><path
             id="path288"
             style="fill:#8e364d;fill-opacity:1;fill-rule:nonzero;stroke:none"
             d="M 0,0 C 0,0 -1.936,22.968 16.388,14.581 29.29,0.517 43.484,-12.774 73.936,-10.71 c 0,0 -0.516,3.356 -0.904,3.484 -0.386,0.129 -27.096,-0.516 -31.096,6.71 -4,7.226 -13.419,17.935 -12,21.29 1.418,3.355 6.838,-1.032 6.838,-1.032 0,0 21.678,-17.678 38.839,-18.323 l -0.129,1.935 c 0,0 -23.742,1.163 -37.162,18.839 -6.064,9.549 12.259,-1.676 12.259,-1.676 0,0 16.645,-13.291 27.612,-9.291 0,0 -26.58,7.096 -24.129,18.452 0,0 12.646,-3.097 16.646,-7.614 l 14.322,-3.225 c 0,0 -18.064,5.678 -20.386,13.548 L 72.517,28 c 0,0 -7.743,6.064 -2.195,7.097 5.549,1.032 -26.064,2.322 -26.064,2.322 L 3.871,23.097 -9.419,16.646 -2.193,0.258 Z" /></g><g
           transform="translate(329,9.6823)"
           id="g290"><path
             id="path292"
             style="fill:#8e364d;fill-opacity:1;fill-rule:nonzero;stroke:none"
             d="m 0,0 c 0,0 -7.742,17.807 -1.936,16.064 5.807,-1.741 17.129,-21.483 27.582,-24.193 0,0 -32.42,61.549 -9.292,38.322 8.71,-12.386 30.292,-41.419 59.517,-44.902 0,0 -31.935,17.226 -35.225,26.129 -3.292,8.903 -12,27.871 4.257,22.644 C 54.968,23.42 65.032,18.388 69.29,16.646 c 4.259,-1.743 5.807,-9.485 5.807,-9.485 0,0 2.129,7.742 -8.323,12.968 -10.452,5.226 -2.128,10.259 -2.128,10.259 L 83.807,9.291 c 0,0 -6,16.258 3.096,11.032 C 96,15.097 100.646,4.839 106.258,2.517 c 5.613,-2.324 1.161,2.709 1.161,2.709 0,0 -12.968,16.065 1.549,12.967 0,0 22.451,-10.644 28.839,-10.064 0.774,0 -4.453,2.517 -4.453,2.517 0,0 -16,20.064 3,13.354 4.807,-3.677 15.968,-14.322 23.904,-13.742 7.935,0.581 -2.322,4.839 -2.322,4.839 0,0 -4.646,15.096 8.322,15.677 7.355,-7.742 24.193,-9.29 24.193,-9.29 l -9.87,3.677 L 162.968,42.774 130.064,34.452 97.549,26.903 68.517,31.549 37.161,48.968 5.226,46.064 -16.258,37.549 c 0,0 0.968,-13.356 1.161,-13.936 C -14.903,23.032 0,0 0,0" /></g><g
           transform="translate(163.8389,3.7467)"
           id="g294"><path
             id="path296"
             style="fill:#8e364d;fill-opacity:1;fill-rule:nonzero;stroke:none"
             d="M 0,0 C 0,0 0.018,0.047 0.053,0.135 0.898,2.231 -3.323,25 41.677,18.193 52.903,9.936 55.742,11.484 56.516,8.646 57.29,5.807 66.064,-4.129 66.064,-4.129 l 5.549,-5.419 -6.968,9.29 L 60,8.388 59.613,13.807 c 0,0 7.871,15.354 21.29,7.742 3.742,-6.71 6.065,-7.356 6.065,-7.356 0,0 2.838,-1.934 4.258,-5.032 1.419,-3.097 2.322,-1.032 2.322,-1.032 l -1.806,2.323 -4.516,7.741 c 0,0 2.71,14.195 11.226,10.453 8.516,-3.743 17.032,-8.129 17.032,-8.129 0,0 4.903,-1.678 5.29,-3.226 0.387,-1.549 1.419,-2.323 2.194,-2.323 0.774,0 4.258,-1.032 4.258,-1.032 0,0 -2.968,23.613 11.225,22.064 1.161,-0.773 5.936,-4.387 6.581,-7.871 0.646,-3.483 0,-4.258 1.936,-5.032 1.935,-0.774 2.968,-1.806 3.483,-2.838 0.517,-1.032 6.194,-7.098 9.161,-8.517 2.968,-1.419 -11.225,21.161 -11.225,21.161 L 130.58,51.484 94.709,44.388 76.129,34.323 56.774,28.646 -4.903,21.936 -10.064,16 -3.742,0.774 Z" /></g><g
           transform="translate(13.9033,9.779)"
           id="g298"><path
             id="path300"
             style="fill:#8e364d;fill-opacity:1;fill-rule:nonzero;stroke:none"
             d="M 0,0 C 0,0 7.258,20.323 24.871,15.581 29.161,9.323 34.838,8.71 35.226,8.323 35.613,7.936 39.387,3.774 39.387,3.774 l 1.258,-0.193 c 0,0 -15.29,19.936 0.097,21.29 1.548,-8.322 1.742,-10.258 6.58,-10.935 4.839,-0.677 7.549,-4.645 7.549,-4.645 0,0 -12.678,22.161 0.387,26.226 5.129,1.547 2.323,-4.936 2.323,-4.936 0,0 2.709,2.032 4.064,-0.871 0.193,-3.483 0.387,-8.032 0.387,-8.032 0,0 7.936,-12.194 24.968,-18.678 L 71.032,17.517 c 0,0 -6.29,19.547 4.355,18.386 2.71,-0.483 1.549,-5.419 1.549,-5.419 0,0 2.322,-13.548 11.902,-17.323 7.452,-5.612 9.098,-6.387 10.549,-9.677 1.451,-3.29 -5.806,7.743 -12.871,14.323 -7.064,6.581 -0.29,10.548 2.322,7.354 2.614,-3.193 9.775,-12.677 20.033,-17.612 10.258,-4.936 -3.871,3.678 -3.871,3.678 0,0 -13.548,21.483 -2.032,20.515 0,0 2.806,-2.032 6.677,-1.354 3.871,0.676 6.291,-6.581 6.291,-7.065 0,-0.484 0.58,-3 2.709,-6.096 2.129,-3.098 2.032,-5.517 5.323,-9 3.29,-3.485 -1.936,4.741 -1.936,4.741 0,0 0.29,15.968 4.549,13.549 0,0 2.032,-1.549 3.29,-6.968 1.258,-5.42 1.548,-6.775 1.548,-6.775 0,0 -3.193,10.936 1.645,10.065 4.839,-0.871 2.42,4.935 2.42,4.935 L 111.774,39 84.387,33.968 75.581,38.517 67.936,42.194 55.064,44.42 38.903,32.903 -9.194,10.646 -4.355,1.259 Z" /></g><g
           transform="translate(379.3223,50.1989)"
           id="g302"><path
             id="path304"
             style="fill:#8e364d;fill-opacity:1;fill-rule:nonzero;stroke:none"
             d="m 0,0 c 0,0 2.581,4.774 6.71,0.387 4.129,-4.387 4.903,-5.419 4.903,-5.419 0,0 3.355,7.483 12.258,-0.904 8.903,-8.387 6.968,-6.064 6.968,-6.064 l -0.903,3.612 c 0,0 5.161,4 12.645,-0.258 7.483,-4.257 8.516,-4.774 8.516,-4.774 l -3.355,3.742 c 0,0 2.065,7.355 10.322,5.549 0,0 1.033,0 1.807,-0.774 0.775,-0.775 5.226,-4.839 5.356,-5.871 0.128,-1.033 -0.646,2.838 -2.646,4.774 -2,1.936 -2.903,2.645 -2.903,2.645 0,0 0.258,2 3.29,1.162 0.193,0 3.549,-1.807 3.549,-1.807 0,0 -1.29,3.29 1.161,3.161 2.451,-0.129 2.71,-0.903 2.71,-0.903 l 5.548,-2.581 -0.129,0.839 -2.194,1.355 c 0,0 4.129,4.903 13.355,4.387 l -0.129,0.774 c 0,0 0,3.419 3.742,2.58 3.742,-0.838 2.968,0.71 2.968,0.71 0,0 3.612,0.387 4,-0.064 0.387,-0.451 2.193,0.968 2.193,0.968 l -0.774,0.515 c 0,0 4.645,4.968 14.129,4.775 9.484,-0.194 6.064,2.064 6.064,2.064 0,0 -2.451,4.968 5.742,5.356 8.194,0.386 4.324,-1.033 8.517,0 4.193,1.032 -10.774,1.483 -2.517,3.418 l 6.856,-0.242 c 0,0 -2.807,5.565 5.709,6.339 8.516,0.775 10.645,1.549 12.92,1.597 1.557,0.033 7.451,0 8.612,0 1.161,0 3,0.629 3,0.629 0,0 -7.597,1.016 -9.048,0.726 -1.452,-0.291 -10.161,10.548 14.612,9.484 l -6.725,3.581 c 0,0 -3.678,5.273 0.968,5.515 4.645,0.243 8.613,-6.629 14.757,-7.547 6.146,-0.92 6.727,-0.533 6.727,-0.533 0,0 -10.694,-0.387 -16.597,7.209 -1.791,2.614 6.194,6.775 16.838,3.824 0.146,0.047 -13.693,4.161 -13.693,4.161 0,0 -0.871,8.612 17.42,5.903 l -2.517,5.371 -1.113,1.306 2.371,-0.048 c 0,0 -8.516,10.209 -0.773,10.258 L 195,78.661 c 0,0 -7.645,14.516 4.259,20.855 11.902,6.338 -4.259,6.871 -4.259,6.871 L 171.678,79.097 134.129,35.548 80.323,8.064 36,3.226 -3.29,9.419 -5.612,3.612 Z" /></g><g
           transform="translate(1.645,66.9079)"
           id="g306"><path
             id="path308"
             style="fill:#8e364d;fill-opacity:1;fill-rule:nonzero;stroke:none"
             d="m 0,0 c 0,0 2.452,25.871 19.613,15.162 0,0 10.581,-20 20.129,-20.581 0,0 -9.742,30.903 3.29,33.936 0.194,0.129 3.549,-10.646 4.904,-11.549 1.355,-0.903 8.451,-7.032 17.161,-10.645 8.71,-3.613 6.645,-7.484 6.645,-7.484 0,0 5.032,4 -15.742,14.259 -3.936,6.322 -14.322,25.161 -3.871,22.451 0.581,-0.646 13.807,-17.678 20,-19.226 6.194,-1.549 -4.838,18.451 9.549,10.451 8.129,-12.064 27.484,-22.128 27.484,-22.128 0,0 4.838,-4.968 14.967,-5.743 0,0 1.807,-6 5.419,-7.225 l -3.806,8.452 -12.194,3.419 -6.58,4.71 -16,14 c 0,0 -9.742,13.161 5.226,7.161 12.322,-10.581 14,-14.517 28.193,-20.129 14.194,-5.613 19.032,-13.936 19.032,-13.936 0,0 -6.387,10.194 -24.128,18.516 -8,6.323 -7.549,5.613 -7.549,5.613 0,0 -5.355,8.71 3.42,6.323 8.774,-2.387 7.225,-2.58 7.225,-2.58 0,0 2.452,-0.71 3.807,-4.453 1.354,-3.742 5.29,-6.709 5.29,-6.709 0,0 -3.097,3.226 -3.161,4.581 -0.065,1.354 -3.613,10.386 6.58,10.064 5.743,-7.871 75.936,-53.742 114.452,-46.774 l 0.581,2.323 c 0,0 -65.613,9.096 -119.226,53.419 L 108.258,33.549 83.097,44.194 55.032,48.646 39.162,47.098 -6.129,20.774 -9.613,2.194 Z" /></g><g
           transform="translate(197.5161,66.07)"
           id="g310"><path
             id="path312"
             style="fill:#8e364d;fill-opacity:1;fill-rule:nonzero;stroke:none"
             d="m 0,0 c 0,0 9.677,25.548 28.258,10.064 8.258,-10.581 11.355,-20.516 19.871,-22.581 8.516,-2.064 6.58,-2.71 6.58,-2.71 0,0 -2.322,2.324 -7.612,5.163 -5.29,2.837 -10.581,14.451 -9.549,17.29 1.033,2.838 0.388,20.644 12.516,13.806 10.194,-12.645 16.645,-14.71 17.033,-14.71 0.387,0 12.516,-9.29 13.935,-12 1.42,-2.71 1.161,-1.935 1.161,-1.935 l 0.646,1.419 c 0,0 0.774,2.516 -12.13,10.903 0,0 -14.064,18.774 -0.128,19.936 13.935,1.161 10.967,-10.904 10.967,-10.904 l 6.968,-6.968 c 0,0 -2.968,16.453 30.193,5.485 5.356,-4.322 10.904,-6.065 10.904,-6.065 l 9.032,-4.967 -6.58,4.322 L 128,8.193 c 0,0 -2.645,10.516 6.323,7.936 C 136.838,13.419 143.806,8 143.806,8 l 1.161,0.387 -4.773,4.71 c 0,0 7.354,7.032 18.451,0.257 6.774,-5.935 8.452,-7.418 8.452,-7.418 l 1.484,-0.324 c 0,0 1.613,7.42 15.29,-2.386 13.677,-9.807 13.677,-10.71 13.677,-10.71 l -1.677,2.064 c 0,0 -17.097,12.71 -2.194,9.742 14.71,-7.29 26,-14 26,-14 l 5.742,0.646 -56.064,27.29 -52.258,9.419 L 76.581,27.612 61.161,36 10.452,21.29 -12.387,16.773 c 0,0 6,-14.709 6.323,-14.773 C -5.742,1.936 0,0 0,0" /></g><g
           transform="translate(411.5967,65.1823)"
           id="g314"><path
             id="path316"
             style="fill:#8e364d;fill-opacity:1;fill-rule:nonzero;stroke:none"
             d="M 0,0 C 0,0 2.758,10.839 16.839,6.242 30.92,1.646 29.71,-2.661 35.274,-4.451 c 5.565,-1.791 4.307,0.919 4.307,0.919 l -5.42,1.79 c 0,0 0.968,14.903 17.468,13.452 16.5,-1.452 20.178,-2.419 20.178,-2.419 l -0.049,0.29 -6.532,1.065 c 0,0 -10.887,9.532 0.967,10.645 11.856,1.112 23.661,-2.178 23.661,-2.178 l 1.307,0.678 -1.597,0.483 c 0,0 -11.806,3.339 -11.08,6.29 2.033,-0.047 7.645,4.888 7.645,6 0,1.114 5.758,-0.725 6.339,-1.354 0.581,-0.629 7.016,-4.936 7.016,-4.936 l 0.968,0.484 c 0,0 -2.178,2.371 4.258,4.21 6.436,1.839 -9.146,4.064 -9.146,4.064 L 88.258,39.339 75.581,29.758 62.468,30.484 15.822,13.888 c 0,0 -28.064,-6.291 -27.919,-6.291 C -11.951,7.597 0,0 0,0" /></g></g></g><g
       id="g318"><g
         clip-path="url(#clipPath324)"
         id="g320"><g
           transform="translate(597.9033,164.9084)"
           id="g326"><path
             id="path328"
             style="fill:#eaacbd;fill-opacity:1;fill-rule:nonzero;stroke:none"
             d="m 0,0 c 0,0 -26.322,1.29 -34.581,-21.936 -8.258,-23.225 -37.419,-56.516 -68.903,-71.741 -31.484,-15.226 -64.258,-36.904 -125.162,-11.097 -11.871,3.871 -13.161,5.936 -23.483,3.871 -10.323,-2.065 -9.549,-14.194 -18.581,-13.42 -9.032,0.775 -35.097,3.871 -35.612,-0.774 0,0 -5.42,6.194 -9.549,4.903 -4.129,-1.29 -63.484,-34.839 -114.839,-29.161 0,0 -29.677,30.193 -72.258,15.742 -10.064,-3.096 -2.58,10.065 -9.806,6.71 -7.226,-3.355 -10.581,8.516 -10.581,8.516 0,0 -58.581,-35.613 -78.193,-40 l 2.838,5.678 c 0,0 66.452,27.096 77.613,41.676 0,0 -0.967,-14.709 15.29,-10.258 4.388,0.065 1.065,-6.774 1.065,-6.774 0,0 36.806,18.13 78.29,-13.548 22.065,-6.193 77.549,10.065 89.033,17.807 11.483,7.741 25.419,10.968 29.032,6.387 5.419,2.903 25.161,-1.162 25.161,-1.162 0,0 20.258,1.872 25.162,16.646 5.935,5.226 20.386,3.419 46.064,-11.033 25.678,-14.451 102.193,0 146.129,47.613 8.322,6.323 18.387,25.162 18.387,25.162 0,0 12.645,42.322 49.806,36.902 z" /></g><g
           transform="translate(365.7744,66.2633)"
           id="g330"><path
             id="path332"
             style="fill:#eaacbd;fill-opacity:1;fill-rule:nonzero;stroke:none"
             d="M 0,0 -3.032,-1.355 C 12.839,-34.258 70.645,-34.064 78.774,-31.549 198.58,24.193 221.032,3.871 221.032,3.871 l 1.355,9.29 C 192.58,28.645 93.871,-17.226 93.871,-17.226 47.354,-43.807 4.064,-5.742 4.064,-5.742 Z" /></g><g
           transform="translate(408.6133,-5.3929)"
           id="g334"><path
             id="path336"
             style="fill:#eaacbd;fill-opacity:1;fill-rule:nonzero;stroke:none"
             d="m 0,0 c -18.994,5.788 -45.229,29.615 -54.117,48.317 -1.275,3.476 -2.482,10.132 5.988,11.919 10.612,0.856 19.031,-7.805 19.031,-7.805 l -15.934,18.773 -3.814,0.545 -2.04,1.907 -9.294,-0.929 c 0,0 -0.3,0.021 -0.706,-0.158 l -0.146,1.345 -13.549,-9.483 -26.903,-5.42 c 0,0 0.71,-5.419 2.257,-11.032 1.304,-4.724 2.453,-22.968 31.807,-46.839 -40.58,48.903 -10.387,29.677 -10.387,29.677 0,0 -9.742,23.936 6.323,25.097 7.697,0.557 10.704,-0.283 12.146,-2.291 C -48.801,28.082 -17.035,0.191 0,0" /></g><g
           transform="translate(377.6777,51.779)"
           id="g338"><path
             id="path340"
             style="fill:#eaacbd;fill-opacity:1;fill-rule:nonzero;stroke:none"
             d="M 0,0 C 0,0 0.258,6.064 4.129,3.355 8,0.646 8.999,-5.733 18.58,-8.129 c 0,0 -9.709,5.839 -9.839,10.807 C 8.612,7.646 1.226,7.259 1.226,7.259 L -4.355,6.742 C -4.355,6.742 -3.42,2.484 0,0" /></g><g
           transform="translate(396.5488,29.4245)"
           id="g342"><path
             id="path344"
             style="fill:#eaacbd;fill-opacity:1;fill-rule:nonzero;stroke:none"
             d="m 0,0 c 0,0 -18.581,10.5 -13.791,18.049 l -5.661,2.347 -0.484,0.265 -2.662,3.532 -7.209,3.92 -9.677,0.484 c 0,0 -1.162,-2.178 0.677,-4.114 1.597,1.743 7.016,0.339 7.016,0.339 0,0 4.355,-2.515 5.517,-1.693 1.072,0.76 4.287,-2.501 4.771,-3.002 C -20.217,17.391 -14.723,7.444 0,0" /></g><g
           transform="translate(389.5078,48.4889)"
           id="g346"><path
             id="path348"
             style="fill:#eaacbd;fill-opacity:1;fill-rule:nonzero;stroke:none"
             d="m 0,0 c 0,0 -3.072,7.633 8.153,1.392 6.746,-3.751 13.597,-12.449 13.597,-12.449 0,0 -6.387,15.581 -14.419,17.904 C -0.701,9.169 -5.564,7.04 -5.564,7.04 Z" /></g><g
           transform="translate(558.6777,70.7145)"
           id="g350"><path
             id="path352"
             style="fill:#eaacbd;fill-opacity:1;fill-rule:nonzero;stroke:none"
             d="m 0,0 c 11.097,-1.161 30.58,-16 37.807,-13.29 0,0 -22.76,7.042 -30.838,12.368 0.075,-0.026 0.128,-0.046 0.128,-0.046 0,0 -1.678,1.936 1.354,1.807 3.032,-0.129 12.258,-6.258 16.581,-6.193 0,0 -13.161,4.709 -14.581,8.903 C 9.185,7.291 3.359,5.335 2.117,4.869 L 1.161,6.323 -13.702,3.743 c -1.327,0.558 -1.911,0.16 -1.911,0.16 l -15.968,-3.871 -0.769,-2.243 -3.586,4.663 -30.774,-12.581 0.239,-2.752 -22.303,-7.377 0.281,-2.613 -28.464,-11.294 c -6.257,1.17 -24.85,0.358 -24.85,0.358 l 1.009,-1.806 -18.815,4.291 0.434,-0.488 -8.66,2.617 c 0,0 15.29,-13.065 16.646,-18 3,-3.871 7.547,-7.355 7.547,-7.355 l -6.871,11.709 -1.099,2.617 c -0.363,1.058 -3.32,10.393 8.842,1.158 8.068,-6.127 20.225,-21.775 40.064,-26.709 0,0 -17.123,7.358 -27.361,16.869 l 0.007,0.001 c 0,0 -14.404,16.274 11.225,8.774 12.387,-9.419 39.355,-18.58 45.032,-18.71 0,0 -20.419,6.47 -32.584,14.116 -2.883,2.555 -10.949,11.387 12.713,13.369 8.065,-6.839 11.032,-23.355 44.839,-23.291 -7.24,1.497 -20.76,2.527 -29.64,15.371 -1.617,3.507 -6.829,16.771 6.091,18.113 6.775,0.064 11.614,-5.936 12.129,-6.129 0.517,-0.193 8.71,-12.258 24.388,-12.581 0,0 -14.957,2.003 -21.716,14.083 -1.491,3.604 -4.29,14.34 14.684,15.466 17.042,1.01 17.225,-28.258 48.58,-27.485 -1.679,1.867 -18.639,-1.109 -34.073,29.168 -0.141,0.625 -1.86,9.122 11.622,-2.168 0.581,0.388 -7.646,10.646 2.71,7.356 10.354,-3.29 24.676,-19.839 40.161,-18.388 l -1.549,5.517 c 0,0 -17.744,-1.073 -27.595,8.764 C -4.793,-5.4 -9.242,0.968 0,0" /></g><g
           transform="translate(407.5811,44.6344)"
           id="g354"><path
             id="path356"
             style="fill:#eaacbd;fill-opacity:1;fill-rule:nonzero;stroke:none"
             d="M 0,0 C 0,0 -2.323,4.919 5.806,2.597 13.936,0.273 27.29,-12.5 34.645,-10.952 35.419,-11.339 21.29,-8.823 18.58,-0.888 c 0,0 -1.548,5.033 5.613,3.871 7.161,-1.161 5.855,-0.919 5.855,-0.919 0,0 -3.146,1.936 0.532,2.662 3.678,0.725 3,-2.807 9.339,-3.726 0,0.145 -4.597,1.548 -3.532,3.677 1.064,2.129 3.096,-1.306 4.5,-1.016 0,0 0.581,-0.29 1.451,0.436 0.871,0.725 4.549,-2.758 5.613,-1.985 0,0 -5.129,2.178 -5.371,5.324 C 42.338,10.58 -5.468,7.193 -5.468,7.193 Z" /></g><g
           transform="translate(451.4189,49.2633)"
           id="g358"><path
             id="path360"
             style="fill:#eaacbd;fill-opacity:1;fill-rule:nonzero;stroke:none"
             d="M 0,0 C 0,0 0,4.161 8.13,3.483 16.259,2.807 22.646,2.71 22.646,2.71 c 0,0 -10.114,0.58 -10.694,3.29 -0.581,2.71 4.597,1.572 4.597,1.572 0,0 2.299,-1.693 3.653,-1.306 1.355,0.387 1.451,0.581 1.766,1.476 0.296,0.842 12.774,-1.935 14.13,-0.968 0,0 -14.807,2.323 -15.291,6.194 C 20.323,16.839 -3,5.903 -3,5.903 V 1.839 Z" /></g><g
           transform="translate(477.9033,58.3278)"
           id="g362"><path
             id="path364"
             style="fill:#eaacbd;fill-opacity:1;fill-rule:nonzero;stroke:none"
             d="m 0,0 c 0,0 -3.484,3.483 7.354,4.516 10.839,1.032 34.71,1.548 34.71,1.548 l -0.516,4.646 c 0,0 -22.194,-7.484 -28,-1.678 -0.516,3.614 13.162,3.097 13.162,3.097 0,0 -3.613,2.451 -3.097,3.742 0.516,1.29 17.548,-3.225 22.323,-0.517 l 3.483,1.162 c 0,0 -17.016,-4.968 -20.387,3.871 L -9.161,3.097 Z" /></g><g
           transform="translate(510.0322,74.9733)"
           id="g366"><path
             id="path368"
             style="fill:#eaacbd;fill-opacity:1;fill-rule:nonzero;stroke:none"
             d="m 0,0 c 0,0 -2.968,4.258 5.032,4.645 8,0.387 18.226,2.064 18.226,2.064 0,0 4.549,-0.29 -3.097,1.452 -8.85,2.017 -5.774,12.709 3.775,14.516 C 33.484,24.483 59.968,5.451 66.839,7.483 66.839,8.258 27.226,23.097 24,29.548 20.774,36 -0.258,8.902 -0.258,8.902 l -6.323,-4 z" /></g><g
           transform="translate(548.6289,101.1823)"
           id="g370"><path
             id="path372"
             style="fill:#eaacbd;fill-opacity:1;fill-rule:nonzero;stroke:none"
             d="M 0,0 C 0,0 -9.242,5.758 13.307,3.436 35.854,1.113 39.92,-6.532 42.339,-3.726 44.758,-0.919 1.888,8.952 1.888,8.952 c 0,0 -7.051,4.987 6.29,11.032 6.193,2.807 6.968,-8.226 29.903,-10.838 0,0 -16.259,8.903 -29.227,19.257 C 3.822,31.984 -16.307,2.952 -16.79,2.661 -17.274,2.371 -7.387,-2.612 -7.307,-2.274 -5.9,3.632 0,0 0,0" /></g><g
           transform="translate(571.71,120.5856)"
           id="g374"><path
             id="path376"
             style="fill:#eaacbd;fill-opacity:1;fill-rule:nonzero;stroke:none"
             d="M 0,0 C 0,0 -21.129,12.835 -9.484,12.387 2.258,11.936 1.032,3.742 13.936,1.613 c 0,0 -12.388,3.226 -15.097,15.033 -2.71,11.806 15.419,15.032 15.419,15.032 L 11.741,46.903 -6.193,34.452 -17.42,12.968 -16.259,6.581 Z" /></g><g
           transform="translate(313.9033,27.779)"
           id="g378"><path
             id="path380"
             style="fill:#eaacbd;fill-opacity:1;fill-rule:nonzero;stroke:none"
             d="M 0,0 C 0,0 -13.064,27.388 -29.032,16.549 -45,5.71 -10.354,-18.871 -10.354,-18.871 c 0,0 -33.194,18 -34.937,39.678 -1.741,21.677 54.388,-1.065 54.388,-1.065 z" /></g><g
           transform="translate(289.7744,18.4567)"
           id="g382"><path
             id="path384"
             style="fill:#eaacbd;fill-opacity:1;fill-rule:nonzero;stroke:none"
             d="m 0,0 c 0,0 -42.688,31.75 -41.678,15.483 0.581,-9.354 7.871,-20.773 7.871,-20.773 0,0 -13.29,19.612 -13.032,26.064 0.258,6.452 28.387,10.452 28.387,10.452 z" /></g><g
           transform="translate(481.6904,28.8327)"
           id="g386"><path
             id="path388"
             style="fill:#eaacbd;fill-opacity:1;fill-rule:nonzero;stroke:none"
             d="M 0,0 C 0,0 29.535,-21.716 47.986,-17.432 44.392,-24.014 2.874,-8.118 2.874,-8.118 Z" /></g><g
           transform="translate(247.4517,27.4889)"
           id="g390"><path
             id="path392"
             style="fill:#eaacbd;fill-opacity:1;fill-rule:nonzero;stroke:none"
             d="m 0,0 c 0,0 -23.742,14.968 -24.129,-4 -0.331,-16.213 8.645,-24.646 8.645,-24.646 0,0 -13.29,16.13 -14.839,26.839 -1.548,10.71 -1.548,7.743 -1.548,7.743 l 24.645,5.161 5.549,1.935 z" /></g><g
           transform="translate(220.9033,15.36)"
           id="g394"><path
             id="path396"
             style="fill:#eaacbd;fill-opacity:1;fill-rule:nonzero;stroke:none"
             d="m 0,0 c -12.774,9.678 -31.162,13.871 -53.613,6.322 -22.451,-7.548 3.581,-22.935 3.581,-22.935 0,0 -25.162,8.806 -20.323,25.549 4.839,16.742 12.581,11.515 12.581,11.515 0,0 19.645,-11.419 25.064,-8.612 5.419,2.807 29.516,5.225 29.613,4.644 C -3,15.903 0,0 0,0" /></g><g
           transform="translate(150.0322,20.8434)"
           id="g398"><path
             id="path400"
             style="fill:#eaacbd;fill-opacity:1;fill-rule:nonzero;stroke:none"
             d="m 0,0 c 0,0 -3.839,23.323 -5.387,8.13 0,0 -5.196,18.142 -8.549,9.806 C -18.709,6.064 -12.839,0 -12.839,0 c 0,0 -12.064,13.807 -4.709,23.484 4.345,5.718 20,-4.129 20.387,-4.516 0.387,-0.387 6.58,-7.484 6.58,-7.484 z" /></g><g
           transform="translate(130.5483,33.4245)"
           id="g402"><path
             id="path404"
             style="fill:#eaacbd;fill-opacity:1;fill-rule:nonzero;stroke:none"
             d="m 0,0 c 0,0 -3.064,9.169 -4.871,8.193 -1.613,-0.871 -3.677,-1.096 -4.838,2.033 -0.337,0.907 -13.604,4.455 -13.065,-3.097 0.581,-8.129 13.065,-22.839 16.838,-23.032 -0.096,-0.387 -18.677,7.354 -23.128,24.581 -2.129,5.225 8.516,5.515 8.903,5.515 0.387,0 17.129,-0.677 17.129,-0.677 L 2.677,11.774 1.613,4.516 Z" /></g><g
           transform="translate(103.645,36.3278)"
           id="g406"><path
             id="path408"
             style="fill:#eaacbd;fill-opacity:1;fill-rule:nonzero;stroke:none"
             d="m 0,0 c 0,0 -6.226,7.032 -7.806,1.226 -1.581,-5.807 6.935,-11.936 6.935,-11.936 0,0 -10.71,4.452 -12.065,16.452 -0.29,2.741 10.033,2.065 10.033,2.065 l 2.516,-4.195 z" /></g><g
           transform="translate(91.7461,37.5651)"
           id="g410"><path
             id="path412"
             style="fill:#eaacbd;fill-opacity:1;fill-rule:nonzero;stroke:none"
             d="m 0,0 c 0,0 -2.577,3.69 -2.553,5.916 0.025,2.226 2.25,1.355 2.25,1.355 L 1.996,1.778 Z" /></g><g
           transform="translate(86.5806,48.5856)"
           id="g414"><path
             id="path416"
             style="fill:#eaacbd;fill-opacity:1;fill-rule:nonzero;stroke:none"
             d="m 0,0 c 0,0 -12.193,-2.71 -3.484,-15.871 8.71,-13.161 19.742,-20.612 19.742,-20.612 0,0 -26.226,11.322 -27.194,30.773 C -11.903,13.742 0,0 0,0" /></g><g
           transform="translate(91.7461,37.5651)"
           id="g418"><path
             id="path420"
             style="fill:#eaacbd;fill-opacity:1;fill-rule:nonzero;stroke:none"
             d="m 0,0 c 0,0 -6.811,8.375 -6.101,2.44 -2.516,3.548 1.29,6.258 5.355,0.129 C 3.318,-3.56 0,0 0,0" /></g><g
           transform="translate(74.4194,56.8434)"
           id="g422"><path
             id="path424"
             style="fill:#eaacbd;fill-opacity:1;fill-rule:nonzero;stroke:none"
             d="M 0,0 C 0,0 1.032,-14.161 -3.71,-17.064 0.839,-17.838 4.032,-4.87 4.032,-4.87 Z" /></g><g
           transform="translate(76.7417,42.5856)"
           id="g426"><path
             id="path428"
             style="fill:#eaacbd;fill-opacity:1;fill-rule:nonzero;stroke:none"
             d="M 0,0 C 0,0 -4.838,-6.193 0.581,-15.483 -2.838,-4.516 1.839,-3.097 1.839,-3.097 Z" /></g><g
           transform="translate(74.1289,47.5856)"
           id="g430"><path
             id="path432"
             style="fill:#eaacbd;fill-opacity:1;fill-rule:nonzero;stroke:none"
             d="m 0,0 c 0,0 -0.677,9.388 -11.709,-1.193 -11.033,-10.581 -3.872,-18.323 -3.872,-18.323 0,0 4.645,-3.226 6.452,-3.355 1.807,-0.129 5.42,-4.645 5.548,-5.226 0.129,-0.581 -5.741,-2.581 -6.064,-2.322 -0.323,0.258 6,4.129 -1.936,6.839 -7.935,2.709 -6.645,13.29 -6.645,13.29 0,0 0,8.839 3.355,11.097 C -11.516,3.064 -1,9.258 -1,9.258 c 0,0 3.226,0.259 3.226,0 C 2.226,9 0,0 0,0" /></g><g
           transform="translate(56.0967,38.5211)"
           id="g434"><path
             id="path436"
             style="fill:#eaacbd;fill-opacity:1;fill-rule:nonzero;stroke:none"
             d="m 0,0 c 0,0 -11.758,-0.339 -13.548,-8.71 -2.673,-12.497 10.693,-3.483 16.935,-19.597 L -3,-28.258 c 0,0 0.356,10.081 -6.774,11.032 -7.984,1.065 -8.516,15.872 -8.516,15.872 L 2.807,9.968 Z" /></g><g
           transform="translate(40.4839,28.1344)"
           id="g438"><path
             id="path440"
             style="fill:#eaacbd;fill-opacity:1;fill-rule:nonzero;stroke:none"
             d="m 0,0 c 0,0 -5.419,6.064 -22.193,-2.71 -16.775,-8.774 0.257,-18.839 0.257,-18.839 l -23.741,10.322 45.032,20.259 z" /></g><g
           transform="translate(-10.6772,88.2633)"
           id="g442"><path
             id="path444"
             style="fill:#eaacbd;fill-opacity:1;fill-rule:nonzero;stroke:none"
             d="m 0,0 c 0.968,-0.388 64.516,15.936 60.452,26.774 0,0 35.548,-13.806 37.096,-5.097 2.516,-7.161 17.613,-3.29 17.613,-3.29 0,0 4.645,-15.871 23.032,-1.548 3.097,-12.581 100.259,-66.775 125.613,-57.097 1.113,0.484 7.452,3.387 7.452,3.387 0,0 -37.645,-7.065 -108.871,39.774 0,0 -19.161,13.936 -21.871,20.516 0,0 -20.968,-15.483 -21.548,0.064 -17.936,0.065 -18.259,5.678 -16.259,8.323 0,0 -27.355,-6.709 -46.064,1.936 C 54.968,24.322 32.387,15.097 4.774,7.226 Z" /></g><g
           transform="translate(158.2905,86.7145)"
           id="g446"><path
             id="path448"
             style="fill:#eaacbd;fill-opacity:1;fill-rule:nonzero;stroke:none"
             d="m 0,0 c 51.742,-10.451 101.161,13.936 101.161,15.613 5.29,-13.42 53.935,-14.452 59.613,-6.322 1.29,-6.323 37.935,-16 44.774,-14.194 6.839,1.806 56.516,-25.29 56.516,-25.29 L 268,-29.032 208.903,0 C 190.709,0.646 162.709,8 161.935,14.839 156.258,12.259 118.451,1.936 101.29,21.032 63.097,-7.483 -6.581,4.452 -6.581,4.452 Z" /></g><g
           transform="translate(383.8389,78.4567)"
           id="g450"><path
             id="path452"
             style="fill:#eaacbd;fill-opacity:1;fill-rule:nonzero;stroke:none"
             d="m 0,0 c 0,0 64.258,-1.936 92.387,22.193 6.193,-8.386 14.193,-1.806 14.839,0 0.645,1.807 6.71,11.871 18.322,1.42 5.678,-4.259 17.162,2.065 17.162,2.065 l -8.646,-7.742 c 0,0 -9.032,-2.71 -11.871,1.29 -2.839,4 -10.064,7.613 -12.774,-0.387 -2.709,-8 -16.774,-2.71 -17.161,-0.903 C 89.419,14.193 69.548,-0.258 8,-4.258 Z" /></g><g
           transform="translate(-4.6772,92.5211)"
           id="g454"><path
             id="path456"
             style="fill:#eaacbd;fill-opacity:1;fill-rule:nonzero;stroke:none"
             d="m 0,0 c 0,0 -4.258,-30.968 16.645,-32.903 0,0 -29.379,24.134 -5.226,29.516 18.678,4.161 20.129,-7.742 20.129,-7.742 0,0 2.42,-14.613 16.065,-20.71 0,0 -18.291,19.065 -10.742,38.226 7.548,19.161 -10.065,1.355 -10.065,1.355 z" /></g><g
           transform="translate(26.4194,84.1344)"
           id="g458"><path
             id="path460"
             style="fill:#eaacbd;fill-opacity:1;fill-rule:nonzero;stroke:none"
             d="m 0,0 c 0,0 -3.484,17.419 10.709,14.968 14.194,-2.452 8.775,-17.936 22.323,-20 0,-0.388 -5.226,3.225 -10.193,14.451 -4.66,10.529 -4.903,6.71 1.354,22.129 -0.903,2.839 -26.903,-14 -26.903,-14 z" /></g><g
           transform="translate(54.2583,116.0373)"
           id="g462"><path
             id="path464"
             style="fill:#eaacbd;fill-opacity:1;fill-rule:nonzero;stroke:none"
             d="M 0,0 C -1.742,-12 26.032,-37.162 26.032,-37.162 12.967,-33.097 -5.323,-1.064 -5.323,-1.064 Z" /></g><g
           transform="translate(78.8066,79.8756)"
           id="g466"><path
             id="path468"
             style="fill:#eaacbd;fill-opacity:1;fill-rule:nonzero;stroke:none"
             d="m 0,0 c 0,0 10,-8.29 10,-12.806 0,-4.516 6.838,-11.387 6.838,-11.387 l 19.291,-6.323 c 0,0 -22.452,6.387 -24.194,17.614 -0.915,5.898 -14,14.966 -14,14.966 z" /></g><g
           transform="translate(62.0967,96.9733)"
           id="g470"><path
             id="path472"
             style="fill:#eaacbd;fill-opacity:1;fill-rule:nonzero;stroke:none"
             d="m 0,0 c 0,0 0.581,20.516 14.129,7.354 13.549,-13.161 25.162,-29.484 39.678,-33.677 0,0 -36.968,26.903 -37.936,39.29 -1.161,4.065 -21.484,6.968 -21.484,6.968 l -7.548,0.193 z" /></g><g
           transform="translate(86.7417,93.5534)"
           id="g474"><path
             id="path476"
             style="fill:#eaacbd;fill-opacity:1;fill-rule:nonzero;stroke:none"
             d="m 0,0 c 0,0 -4.451,17.484 4.581,10.581 9.032,-6.903 22.161,-22.064 28.355,-22.839 0,0 -13.903,11.678 -20.807,24.775 C -1.557,38.481 -10.516,12 -10.516,12 Z" /></g><g
           transform="translate(110.3389,90.3922)"
           id="g478"><path
             id="path480"
             style="fill:#eaacbd;fill-opacity:1;fill-rule:nonzero;stroke:none"
             d="m 0,0 c 0,0 -7.548,13.79 12.597,0.839 l -6.065,10.58 -10.839,4.388 -4.645,3.741 -6.839,-2.322 z" /></g><g
           transform="translate(121.4517,93.4889)"
           id="g482"><path
             id="path484"
             style="fill:#eaacbd;fill-opacity:1;fill-rule:nonzero;stroke:none"
             d="M 0,0 C 0,0 -0.129,9.354 11.677,5.226 L 6.064,13.549 -5.484,8.387 -5.807,3.936 Z" /></g><g
           transform="translate(110.9355,74.2956)"
           id="g486"><path
             id="path488"
             style="fill:#eaacbd;fill-opacity:1;fill-rule:nonzero;stroke:none"
             d="m 0,0 c 0,0 3.032,-5.097 17.452,-5.968 0,-5.806 10.741,-12.387 12.387,-11.322 1.645,1.064 11.661,-14.274 11.661,-14.274 l -15.484,3.435 c 0,0 6.242,7.065 -1.307,9.387 -7.548,2.322 -9.096,11.129 -9.096,11.129 0,0 -13.839,2.323 -15,5.806 z" /></g><g
           transform="translate(145.1606,49.9528)"
           id="g490"><path
             id="path492"
             style="fill:#7a2134;fill-opacity:1;fill-rule:nonzero;stroke:none"
             d="M 0,0 C 0.568,-0.983 0.485,-2.095 -0.184,-2.481 -0.854,-2.867 -1.856,-2.384 -2.424,-1.4 -2.992,-0.416 -2.91,0.694 -2.24,1.081 -1.571,1.468 -0.568,0.983 0,0" /></g><g
           transform="translate(207.1934,85.6823)"
           id="g494"><path
             id="path496"
             style="fill:#eaacbd;fill-opacity:1;fill-rule:nonzero;stroke:none"
             d="M 0,0 C 0,0 -27.613,-4.129 -13.419,-16.258 0.774,-28.387 42,-36.322 53.387,-34.29 c 0,0 -25.516,-11.903 -105,37.645 C -50.838,3.355 0,0 0,0" /></g><g
           transform="translate(187.145,70.9567)"
           id="g498"><path
             id="path500"
             style="fill:#7a2134;fill-opacity:1;fill-rule:nonzero;stroke:none"
             d="m 0,0 -11.822,5.983 -9.932,6.206 c 1.237,2.143 9.323,1.756 13.617,-0.723 C -3.842,8.986 1.164,2.183 0,0" /></g><g
           transform="translate(203.8389,86.1989)"
           id="g502"><path
             id="path504"
             style="fill:#eaacbd;fill-opacity:1;fill-rule:nonzero;stroke:none"
             d="m 0,0 c 0,0 24.635,-1.083 30.968,-18.323 4.645,-12.645 10.58,-13.419 10.58,-13.419 0,0 -6.71,6.193 -8.516,16.258 C 31.226,-5.42 22.709,5.677 17.032,5.161 11.354,4.645 0,0 0,0" /></g><g
           transform="translate(235,76.779)"
           id="g506"><path
             id="path508"
             style="fill:#eaacbd;fill-opacity:1;fill-rule:nonzero;stroke:none"
             d="m 0,0 c 0,0 -1.903,15.113 7,16.661 8.903,1.549 15.097,-18.144 23.419,-20.467 0,0 -18.403,13.129 -9.435,27.194 l -33.177,-9.904 z" /></g><g
           transform="translate(269.9678,69.6823)"
           id="g510"><path
             id="path512"
             style="fill:#eaacbd;fill-opacity:1;fill-rule:nonzero;stroke:none"
             d="m 0,0 c 0,0 10.064,-6.58 10.258,-10.258 0,0 -0.097,4.404 -2.226,5.226 C 5.903,-4.209 0,0 0,0" /></g><g
           transform="translate(267.0645,95.8756)"
           id="g514"><path
             id="path516"
             style="fill:#eaacbd;fill-opacity:1;fill-rule:nonzero;stroke:none"
             d="m 0,0 c 0,0 3.484,-17.548 28,-29.548 0,0 -29.032,21.936 -14.839,27.355 z" /></g><g
           transform="translate(267.645,93.9733)"
           id="g518"><path
             id="path520"
             style="fill:#eaacbd;fill-opacity:1;fill-rule:nonzero;stroke:none"
             d="m 0,0 c 0,0 -9.484,9.483 -13.161,3.967 -3.677,-5.516 0.097,4.839 0.097,4.839 l 6.193,0.581 7.355,-5.614 z" /></g><g
           transform="translate(282.355,77.8756)"
           id="g522"><path
             id="path524"
             style="fill:#eaacbd;fill-opacity:1;fill-rule:nonzero;stroke:none"
             d="m 0,0 c 0,0 -12.129,21.613 23.162,5.742 25.003,-11.245 31.483,-16.644 31.483,-16.644 0,0 -31.871,18.838 -30.581,25.676 1.291,6.839 -30.967,0.388 -30.967,0.388 L -6.516,6.13 Z" /></g><g
           transform="translate(321.2578,77.2311)"
           id="g526"><path
             id="path528"
             style="fill:#eaacbd;fill-opacity:1;fill-rule:nonzero;stroke:none"
             d="M 0,0 C 0,0 -2.193,18 8.259,8.064 18.71,-1.871 22,-5.258 26.129,-6.323 c 0,0 -12.226,8.549 -15.161,18.452 -2.671,9.013 -17.29,7.742 -17.29,7.742 l -10.194,-4.194 1.097,-5.548 z" /></g><g
           transform="translate(356.5488,82.1344)"
           id="g530"><path
             id="path532"
             style="fill:#eaacbd;fill-opacity:1;fill-rule:nonzero;stroke:none"
             d="m 0,0 c 0,0 18.58,-24.032 25.935,-24.936 0,0 -22.838,16.387 -17.419,24.516 1.548,1.161 28.677,-21.419 28.677,-21.419 0,0 -21.967,21.871 -25.935,22.645 C 7.29,1.58 0,0 0,0" /></g><g
           transform="translate(415.3867,76.4567)"
           id="g534"><path
             id="path536"
             style="fill:#eaacbd;fill-opacity:1;fill-rule:nonzero;stroke:none"
             d="m 0,0 c 0,0 -13.097,-6.258 -0.064,-12.839 13.032,-6.58 -24.129,11.613 -24.129,11.613 z" /></g><g
           transform="translate(413.3867,75.6823)"
           id="g538"><path
             id="path540"
             style="fill:#eaacbd;fill-opacity:1;fill-rule:nonzero;stroke:none"
             d="m 0,0 c 0,0 10.452,2.517 26.903,-9.29 16.452,-11.807 20.324,-5.807 20.324,-5.807 0,0 -16.259,0.581 -19.743,7.161 -3.484,6.582 -2.903,13.743 1.548,15.097 4.452,1.356 -30,-5.419 -30,-5.419 z" /></g><g
           transform="translate(439.0322,72.6823)"
           id="g542"><path
             id="path544"
             style="fill:#eaacbd;fill-opacity:1;fill-rule:nonzero;stroke:none"
             d="M 0,0 C 0,0 0.678,11.032 21.064,6.42 31.54,4.05 49.936,1.161 49.936,1.161 c 0,0 -29.258,3.065 -32.485,12.871 C 16.678,14.549 -5.646,7.064 -5.646,7.064 Z" /></g><g
           transform="translate(464.5811,79.7467)"
           id="g546"><path
             id="path548"
             style="fill:#eaacbd;fill-opacity:1;fill-rule:nonzero;stroke:none"
             d="M 0,0 C 0,0 -8.227,11.42 17.226,7.936 42.677,4.452 48.58,4.452 48.58,4.452 c 0,0 -28.742,1.839 -31.161,9.677 C 15,21.968 4.741,13.936 4.741,13.936 L -8.42,6.774 -4.839,1.161 Z" /></g><g
           transform="translate(497.6777,102.5856)"
           id="g550"><path
             id="path552"
             style="fill:#eaacbd;fill-opacity:1;fill-rule:nonzero;stroke:none"
             d="M 0,0 C 0,0 15.483,-11.322 18.29,-15.774 21.097,-20.226 9.58,-3.871 9.58,-3.871 L 1.064,1.549 Z" /></g><g
           transform="translate(162.5483,62.9733)"
           id="g554"><path
             id="path556"
             style="fill:#eaacbd;fill-opacity:1;fill-rule:nonzero;stroke:none"
             d="m 0,0 c 0,0 18.871,-6.355 27.097,-27.355 11.806,-7.839 17.032,-6.71 17.032,-6.71 0,0 -12.774,3.419 -15.097,8.065 C 26.71,-21.355 10.064,-0.517 0,0" /></g><g
           transform="translate(153.2583,65.1667)"
           id="g558"><path
             id="path560"
             style="fill:#eaacbd;fill-opacity:1;fill-rule:nonzero;stroke:none"
             d="M 0,0 C 0,0 -17.678,7.741 -20.903,15.483 -20.903,15.483 -11.871,5.419 0,0" /></g></g></g><g
       id="g562"><g
         clip-path="url(#clipPath568)"
         id="g564"><g
           transform="translate(-5.1934,95.7467)"
           id="g570"><path
             id="path572"
             style="fill:none;stroke:#000000;stroke-width:1;stroke-linecap:round;stroke-linejoin:round;stroke-miterlimit:10;stroke-dasharray:none;stroke-opacity:1"
             d="m 0,0 c 0,0 48,11.613 50.581,26.065 0,0 18.322,-8.774 46.709,-1.548 C 92.129,15.742 113.548,16 113.548,16 c 0,0 -0.258,-16.258 21.161,0.259 5.162,-13.42 82.872,-65.42 131.388,-60.517" /></g><g
           transform="translate(151.8428,91.5378)"
           id="g574"><path
             id="path576"
             style="fill:none;stroke:#000000;stroke-width:1;stroke-linecap:round;stroke-linejoin:round;stroke-miterlimit:10;stroke-dasharray:none;stroke-opacity:1"
             d="m 0,0 c 0,0 63.093,-13.598 107.996,15.822 0,0 17.806,-20.645 60.645,-5.935 5.162,-11.614 46.71,-14.968 46.71,-14.968 l 59.935,-28.968" /></g><g
           transform="translate(-1.0645,21.9401)"
           id="g578"><path
             id="path580"
             style="fill:none;stroke:#000000;stroke-width:1;stroke-linecap:round;stroke-linejoin:round;stroke-miterlimit:10;stroke-dasharray:none;stroke-opacity:1"
             d="m 0,0 c 0,0 56.516,22.194 78.193,41.807 0.259,-16 13.936,-10.065 13.936,-10.065 0,0 4.645,0.775 2.064,-5.677 -2.58,-6.452 26.839,20.903 77.678,-14.194 9.548,-6.709 63.226,2.065 100.129,22.71 0,0 12.387,6.193 18.839,1.032 6.193,1.807 22.451,-0.774 22.451,-0.774 0,0 17.807,-2.58 26.581,14.71 0,0 4.903,13.678 44.387,-8.258 39.484,-21.936 141.161,12.645 169.032,76.387 27.871,63.742 90.323,13.161 90.323,13.161" /></g><g
           transform="translate(384.6934,78.0378)"
           id="g582"><path
             id="path584"
             style="fill:none;stroke:#000000;stroke-width:1;stroke-linecap:round;stroke-linejoin:round;stroke-miterlimit:10;stroke-dasharray:none;stroke-opacity:1"
             d="m 0,0 c 0,0 60.693,-2.162 91.661,22.612 7.678,-9.58 14.71,0 14.71,0 0,0 7,11.033 15.226,3.356 11.584,-10.812 25.226,5.161 25.226,5.161" /></g><g
           transform="translate(587.5811,79.7467)"
           id="g586"><path
             id="path588"
             style="fill:none;stroke:#000000;stroke-width:1;stroke-linecap:round;stroke-linejoin:round;stroke-miterlimit:10;stroke-dasharray:none;stroke-opacity:1"
             d="m 0,0 c 0,0 -23.227,17.42 -130.839,-32.516 -46.645,-22.838 -86.516,13.162 -86.516,13.162 0,0 -2.675,2.088 -1.283,3.556 0.896,0.944 1.911,0.798 1.911,0.798" /></g></g></g><g
       id="g590"><g
         clip-path="url(#clipPath596)"
         id="g592"><g
           transform="translate(522.0811,108.6022)"
           id="g598"><path
             id="path600"
             style="fill:#75645e;fill-opacity:1;fill-rule:nonzero;stroke:none"
             d="m 0,0 1.37,1.322 c 0,0 9.823,-7.935 4.098,-15.935 0,0 2.741,6.386 -5.468,14.613" /></g><g
           transform="translate(507.5029,97.6081)"
           id="g602"><path
             id="path604"
             style="fill:#91685c;fill-opacity:1;fill-rule:nonzero;stroke:none"
             d="m 0,0 c 0,0 0.015,-0.013 0.042,-0.037 0.764,-0.654 11.713,-9.849 17.906,-4.34 0,0 3.17,1.934 2.392,5.547 0.031,0.101 2.64,-8.096 -8.617,-8.708 -3.29,-0.549 -10.982,3.969 -12.797,6.42 z" /></g><g
           transform="translate(507.5029,97.6081)"
           id="g606"><path
             id="path608"
             style="fill:#683c48;fill-opacity:1;fill-rule:nonzero;stroke:none"
             d="M 0,0 C 0,0 11.352,-10.168 17.69,-4.894 24.029,0.381 17.481,7.155 14.667,10.93 Z" /></g><g
           transform="translate(542.8223,123.1017)"
           id="g610"><path
             id="path612"
             style="fill:#91685c;fill-opacity:1;fill-rule:nonzero;stroke:none"
             d="M 0,0 C 0.161,0.458 0.947,1.447 0.884,1.903 0.154,4.03 -1.844,6.494 -3.084,7.625 -3.593,6.044 -6.513,1.107 -10.145,-3.338 c -4.18,-5.118 -9.034,-9.743 -9.034,-9.743 10.163,-9.967 3.679,-16.742 3.679,-16.742 0,0 8.388,7.195 10.751,11.22 C -5.153,-14.645 -2.822,-8.032 0,0" /></g><g
           transform="translate(509.5811,99.8522)"
           id="g614"><path
             id="path616"
             style="fill:#683c48;fill-opacity:1;fill-rule:nonzero;stroke:none"
             d="m 0,0 11.354,13.862 8.497,8.577 8.89,6.037 c 0,0 -1.671,-3.969 -7.773,-11.065 -2.114,-2.456 -4.99,-5.225 -8.195,-8.42 z" /></g><g
           transform="translate(507.6289,97.6667)"
           id="g618"><path
             id="path620"
             style="fill:#91685c;fill-opacity:1;fill-rule:nonzero;stroke:none"
             d="M 0,0 2.258,2.58 16.492,12.83 14.541,10.871 Z" /></g><g
           transform="translate(532.3574,124.8019)"
           id="g622"><path
             id="path624"
             style="fill:#b57c6f;fill-opacity:1;fill-rule:nonzero;stroke:none"
             d="M 0,0 6.691,4.614 6.074,3.623 -2.104,-1.882 Z" /></g><g
           transform="translate(542.9316,123.5495)"
           id="g626"><path
             id="path628"
             style="fill:#75645e;fill-opacity:1;fill-rule:nonzero;stroke:none"
             d="m 0,0 c 0.166,0.258 0.588,0.895 0.778,1.101 -1.034,3.077 -3.996,6.02 -3.996,6.02 L -4.351,4.875 C -2.674,4.617 -0.92,2.286 0,0" /></g><g
           transform="translate(509.7744,100.3278)"
           id="g630"><path
             id="path632"
             style="fill:#91685c;fill-opacity:1;fill-rule:nonzero;stroke:none"
             d="m 0,0 c 0,0 15.226,18.774 18.161,20.484 1.322,-1.162 2.951,-2.5 2.951,-2.5 L 10.487,7.29 -0.267,-0.439 Z" /></g><g
           transform="translate(527.833,98.8463)"
           id="g634"><path
             id="path636"
             style="fill:none;stroke:#000000;stroke-width:1;stroke-linecap:butt;stroke-linejoin:miter;stroke-miterlimit:10;stroke-dasharray:none;stroke-opacity:1"
             d="m 0,0 c 1.521,-5.393 -3.422,-7.808 -3.487,-7.828 -9.177,-3.926 -17.917,5.472 -17.917,5.472 l 1.074,1.118 c 0,0 10.146,-8.906 16.538,-5.479 3.089,1.656 4.185,3.95 3.802,6.649 -0.409,2.886 -2.51,6.234 -5.673,9.759 l 1.377,1.467 c 0,0 11.258,-9.928 2.454,-17.828" /></g><g
           transform="translate(543.8389,124.4889)"
           id="g638"><path
             id="path640"
             style="fill:none;stroke:#000000;stroke-width:1;stroke-linecap:butt;stroke-linejoin:miter;stroke-miterlimit:10;stroke-dasharray:none;stroke-opacity:1"
             d="m 0,0 c -0.661,1.91 -2.753,4.7 -4.125,6.181 -4.486,-8.204 -9.755,-14.89 -16.665,-21.068 -4.67,-4.175 -10.631,-8.199 -15.546,-11.994 10.26,11.491 16.304,22.107 31.606,31.929" /></g><g
           transform="translate(537.2158,103.3307)"
           id="g642"><path
             id="path644"
             style="fill:none;stroke:#000000;stroke-width:1;stroke-linecap:butt;stroke-linejoin:round;stroke-miterlimit:10;stroke-dasharray:none;stroke-opacity:1"
             d="m 0,0 c 0.032,0.044 0.824,1.124 0.857,1.168 0,0 -0.331,6.668 5.992,20.506" /></g><g
           transform="translate(526.1777,92.4001)"
           id="g646"><path
             id="path648"
             style="fill:none;stroke:#000000;stroke-width:1;stroke-linecap:butt;stroke-linejoin:round;stroke-miterlimit:10;stroke-dasharray:none;stroke-opacity:1"
             d="m 0,0 c 2.038,1.677 4.065,3.335 5.934,5.204 2.071,2.072 4.025,4.291 5.833,6.717" /></g><g
           transform="translate(510.2334,100.7467)"
           id="g650"><path
             id="path652"
             style="fill:none;stroke:#000000;stroke-width:0.5;stroke-linecap:butt;stroke-linejoin:miter;stroke-miterlimit:10;stroke-dasharray:none;stroke-opacity:1"
             d="M 0,0 15.605,11.71" /></g><g
           transform="translate(543.0645,123.2956)"
           id="g654"><path
             id="path656"
             style="fill:none;stroke:#000000;stroke-width:0.5;stroke-linecap:butt;stroke-linejoin:miter;stroke-miterlimit:10;stroke-dasharray:none;stroke-opacity:1"
             d="m 0,0 c -1.161,3.097 -3.508,5.468 -4.742,5.032 -0.39,-0.137 -7.926,-5.045 -10.387,-7.516 0,0 2.5,-2.597 3.322,-2.645" /></g><g
           transform="translate(526.4189,106.7145)"
           id="g658"><path
             id="path660"
             style="fill:none;stroke:#000000;stroke-width:0.5;stroke-linecap:butt;stroke-linejoin:miter;stroke-miterlimit:10;stroke-dasharray:none;stroke-opacity:1"
             d="M 0,0 C 0,0 13.573,9.992 14.541,20.186" /></g><g
           transform="translate(529.1289,100.7145)"
           id="g662"><path
             id="path664"
             style="fill:none;stroke:#000000;stroke-width:0.5;stroke-linecap:butt;stroke-linejoin:miter;stroke-miterlimit:10;stroke-dasharray:none;stroke-opacity:1"
             d="M 0,0 C 3.288,1.612 7.586,6.763 9.693,9.726" /></g><g
           transform="translate(530.0811,118.8117)"
           id="g666"><path
             id="path668"
             style="fill:none;stroke:#000000;stroke-width:0.5;stroke-linecap:butt;stroke-linejoin:miter;stroke-miterlimit:10;stroke-dasharray:none;stroke-opacity:1"
             d="M 0,0 -9.678,-11.129" /></g></g></g></g></svg>