<?xml version="1.0" encoding="UTF-8" standalone="no"?>
<svg
   xmlns:dc="http://purl.org/dc/elements/1.1/"
   xmlns:cc="http://creativecommons.org/ns#"
   xmlns:rdf="http://www.w3.org/1999/02/22-rdf-syntax-ns#"
   xmlns:svg="http://www.w3.org/2000/svg"
   xmlns="http://www.w3.org/2000/svg"
   viewBox="0 0 284.81732 285.42001"
   height="285.42001"
   width="284.81732"
   xml:space="preserve"
   id="svg2"
   version="1.1"><metadata
     id="metadata8"><rdf:RDF><cc:Work
         rdf:about=""><dc:format>image/svg+xml</dc:format><dc:type
           rdf:resource="http://purl.org/dc/dcmitype/StillImage" /></cc:Work></rdf:RDF></metadata><defs
     id="defs6"><clipPath
       id="clipPath20"
       clipPathUnits="userSpaceOnUse"><path
         id="path18"
         d="M 0,214.065 H 213.613 V 0 H 0 Z" /></clipPath><clipPath
       id="clipPath64"
       clipPathUnits="userSpaceOnUse"><path
         id="path62"
         d="M 0,214.065 H 213.613 V 0 H 0 Z" /></clipPath><clipPath
       id="clipPath128"
       clipPathUnits="userSpaceOnUse"><path
         id="path126"
         d="M 0,214.065 H 213.613 V 0 H 0 Z" /></clipPath></defs><g
     transform="matrix(1.3333333,0,0,-1.3333333,0,285.42)"
     id="g10"><path
       id="path12"
       style="fill:#e9a858;fill-opacity:1;fill-rule:nonzero;stroke:none"
       d="M 0,0 H 213.613 V 214.064 H 0 Z" /><g
       id="g14"><g
         clip-path="url(#clipPath20)"
         id="g16"><g
           transform="translate(51.9746,67.985)"
           id="g22"><path
             id="path24"
             style="fill:#c37c2a;fill-opacity:1;fill-rule:nonzero;stroke:none"
             d="M 0,0 -10.06,-12.29 -57.5,-22.43 V -3.649 C -43.14,0 0,0 0,0" /></g><g
           transform="translate(218.5347,16.9655)"
           id="g26"><path
             id="path28"
             style="fill:#c37c2a;fill-opacity:1;fill-rule:nonzero;stroke:none"
             d="M 0,0 V -20.261 H -224.06 V -4.32 h 15.5 l 181.451,8.009 z" /></g><g
           transform="translate(218.5347,40.6647)"
           id="g30"><path
             id="path32"
             style="fill:#c37c2a;fill-opacity:1;fill-rule:nonzero;stroke:none"
             d="m 0,0 v -14.88 c -77.229,31.04 -190.32,4.62 -224.06,-4.479 V -6.13 C -99.76,38.7 -11.45,4.83 0,0" /></g><g
           transform="translate(218.5347,68.2555)"
           id="g34"><path
             id="path36"
             style="fill:#c37c2a;fill-opacity:1;fill-rule:nonzero;stroke:none"
             d="M 0,0 V -16.811 C -61.359,18.21 -181.96,6.84 -224.06,1.5 V 17.01 C -138.81,32.67 -18.26,4.489 0,0" /></g><g
           transform="translate(218.5347,93.9352)"
           id="g38"><path
             id="path40"
             style="fill:#c37c2a;fill-opacity:1;fill-rule:nonzero;stroke:none"
             d="M 0,0 V -16.8 C -100.729,13.58 -185.88,8.61 -224.06,3.82 V 18.09 C -109.46,32.26 -28.81,9.98 0,0" /></g><g
           transform="translate(218.5347,123.0851)"
           id="g42"><path
             id="path44"
             style="fill:#c37c2a;fill-opacity:1;fill-rule:nonzero;stroke:none"
             d="M 0,0 V -14.13 C -53.729,9.13 -173.48,3.8 -224.06,0.28 V 15.47 C -119.63,31.7 -29.21,8.79 0,0" /></g><g
           transform="translate(218.5347,153.8551)"
           id="g46"><path
             id="path48"
             style="fill:#c37c2a;fill-opacity:1;fill-rule:nonzero;stroke:none"
             d="M 0,0 V -15.19 C -70.649,2.92 -178.51,-0.93 -224.06,-3.63 V 13.3 C -128.33,21.58 -30.729,5.7 0,0" /></g><g
           transform="translate(218.5347,186.0753)"
           id="g50"><path
             id="path52"
             style="fill:#c37c2a;fill-opacity:1;fill-rule:nonzero;stroke:none"
             d="m 0,0 v -14.8 c -49.99,9.52 -170.26,7.2 -224.06,5.58 V 6.87 C -98.939,15.81 -28.55,5.9 0,0" /></g><g
           transform="translate(218.5347,216.0954)"
           id="g54"><path
             id="path56"
             style="fill:#c37c2a;fill-opacity:1;fill-rule:nonzero;stroke:none"
             d="m 0,0 v -12.83 c -53.08,1.78 -180.65,0.55 -224.06,0.06 v 13.5 h 103.75 z" /></g></g></g><g
       id="g58"><g
         clip-path="url(#clipPath64)"
         id="g60"><g
           transform="translate(202.3325,126.5627)"
           id="g66"><path
             id="path68"
             style="fill:#e9a858;fill-opacity:1;fill-rule:nonzero;stroke:none"
             d="m 0,0 c -0.012,-2.522 -0.115,-3.973 -0.115,-3.973 0,0 -0.312,-2.613 -0.887,-7.069 v -0.012 c -0.368,-2.925 -0.852,-6.633 -1.428,-10.927 -0.403,-3.04 -0.852,-6.379 -1.347,-9.937 -0.449,-3.236 -0.933,-6.644 -1.451,-10.179 -0.541,-3.742 -1.117,-7.611 -1.715,-11.561 v -0.011 c -0.311,-2.003 -0.622,-4.019 -0.945,-6.057 -0.575,-3.638 -1.163,-7.312 -1.784,-10.961 -0.415,-2.533 -0.841,-5.056 -1.278,-7.542 -0.611,-3.432 -1.221,-6.806 -1.843,-10.075 -0.518,-2.718 -1.036,-5.355 -1.565,-7.911 -1.187,-5.757 -2.396,-11.042 -3.605,-15.568 l 0.012,-0.299 0.299,-9.569 h -155.399 l 0.288,9.212 c 0,0 -0.012,0.127 -0.046,0.357 -0.173,1.244 -0.772,5.584 -1.555,11.514 -0.241,1.716 -0.483,3.559 -0.737,5.493 -0.357,2.683 -0.736,5.562 -1.128,8.521 -0.242,1.969 -0.507,3.983 -0.76,5.999 -0.345,2.728 -0.691,5.47 -1.025,8.164 -0.552,4.49 -1.082,8.831 -1.508,12.712 v 0.011 c -0.415,3.604 -0.749,6.817 -0.967,9.349 -0.219,2.533 -0.323,4.4 -0.288,5.343 0.023,0.588 0.011,1.727 -0.012,3.351 -0.034,2.487 -0.104,6.08 -0.127,10.478 -0.022,2.752 -0.022,5.804 0.023,9.085 0.023,2.982 0.081,6.16 0.185,9.477 v 0.011 c 0.092,3.236 0.23,6.575 0.426,10.006 0.207,3.858 0.495,7.807 0.852,11.779 0.242,2.649 0.518,5.297 0.841,7.934 0.46,3.777 1.001,7.519 1.657,11.157 0.484,2.799 1.037,5.528 1.659,8.176 0.84,3.615 1.807,7.069 2.924,10.293 0.714,2.119 1.497,4.123 2.349,6.023 1.785,3.995 3.857,7.45 6.275,10.202 1.67,1.922 3.513,3.488 5.528,4.64 1.496,0.852 3.074,1.704 4.732,2.533 7.404,3.742 16.281,7.174 26.046,9.845 23.823,6.528 52.955,8.532 79.093,-0.599 3.764,-1.301 7.461,-2.844 11.065,-4.64 2.798,-1.393 5.389,-2.948 7.783,-4.664 3.42,-2.429 6.437,-5.147 9.109,-8.071 2.728,-2.982 5.089,-6.184 7.139,-9.499 1.37,-2.211 2.602,-4.468 3.696,-6.76 1.473,-3.051 2.718,-6.148 3.776,-9.223 1.509,-4.433 2.637,-8.831 3.466,-13.011 0.795,-3.926 1.313,-7.646 1.658,-11.008 C -0.093,7.3 0.012,2.925 0,0" /></g><g
           transform="translate(47.1289,62.8414)"
           id="g70"><path
             id="path72"
             style="fill:#c37c2a;fill-opacity:1;fill-rule:nonzero;stroke:none"
             d="m 0,0 -3.8,-9.212 -17.986,-7.622 c -0.345,2.729 -0.691,5.47 -1.024,8.164 v 5.216 C -19.01,0 0,0 0,0" /></g><g
           transform="translate(184.3696,14.7799)"
           id="g74"><path
             id="path76"
             style="fill:#c37c2a;fill-opacity:1;fill-rule:nonzero;stroke:none"
             d="m 0,0 0.012,-0.299 h -154.858 c -0.173,1.243 -0.772,5.584 -1.555,11.514 h 19.16 L -6.725,16.973 3.604,15.567 C 2.418,9.811 1.209,4.525 0,0" /></g><g
           transform="translate(191.3823,48.3336)"
           id="g78"><path
             id="path80"
             style="fill:#c37c2a;fill-opacity:1;fill-rule:nonzero;stroke:none"
             d="m 0,0 c -0.61,-3.432 -1.221,-6.806 -1.843,-10.075 -62.052,21.739 -151.806,-3.662 -162.307,-6.771 -0.357,2.683 -0.737,5.562 -1.129,8.521 C -79.462,25.066 -16.098,6.01 0,0" /></g><g
           transform="translate(194.4448,66.8366)"
           id="g82"><path
             id="path84"
             style="fill:#c37c2a;fill-opacity:1;fill-rule:nonzero;stroke:none"
             d="m 0,0 c -0.575,-3.638 -1.163,-7.312 -1.784,-10.961 -55.005,29.063 -169.609,10.42 -169.609,10.42 l -0.242,0.588 v 0.011 c -0.414,3.604 -0.748,6.817 -0.967,9.349 C -111.978,25.988 -15.694,3.835 0,0" /></g><g
           transform="translate(197.105,84.4655)"
           id="g86"><path
             id="path88"
             style="fill:#c37c2a;fill-opacity:1;fill-rule:nonzero;stroke:none"
             d="M 0,0 C -0.541,-3.742 -1.117,-7.611 -1.716,-11.561 -93.037,15.533 -166.177,2.35 -175.562,0.473 c -0.034,2.486 -0.103,6.079 -0.126,10.477 C -85.587,25.079 -21.958,7.6 0,0" /></g><g
           transform="translate(199.9028,104.5812)"
           id="g90"><path
             id="path92"
             style="fill:#c37c2a;fill-opacity:1;fill-rule:nonzero;stroke:none"
             d="m 0,0 c -0.403,-3.04 -0.853,-6.378 -1.348,-9.937 -44.928,20.669 -159.855,11.388 -177.115,9.856 0.023,2.983 0.081,6.161 0.184,9.477 V 9.408 C -93.475,26.518 -18.48,5.827 0,0" /></g><g
           transform="translate(202.3325,126.5627)"
           id="g94"><path
             id="path96"
             style="fill:#c37c2a;fill-opacity:1;fill-rule:nonzero;stroke:none"
             d="m 0,0 c -0.012,-2.522 -0.115,-3.973 -0.115,-3.973 0,0 -0.312,-2.613 -0.887,-7.069 -60.819,17.156 -165.44,9.58 -179.28,8.474 0.207,3.858 0.495,7.807 0.852,11.779 C -99.669,18.826 -13.817,2.763 0,0" /></g><g
           transform="translate(201.6987,139.1017)"
           id="g98"><path
             id="path100"
             style="fill:#c37c2a;fill-opacity:1;fill-rule:nonzero;stroke:none"
             d="m 0,0 c -36.581,8.958 -148.732,5.642 -177.956,4.606 0.461,3.777 1.002,7.519 1.658,11.157 101.351,8.175 155.572,-0.506 174.64,-4.755 C -0.863,7.082 -0.345,3.362 0,0" /></g><g
           transform="translate(196.5747,163.1207)"
           id="g102"><path
             id="path104"
             style="fill:#c37c2a;fill-opacity:1;fill-rule:nonzero;stroke:none"
             d="m 0,0 c -43.616,1.417 -154.547,0.104 -169.516,-0.081 0.841,3.616 1.808,7.07 2.925,10.294 L -3.776,9.223 C -2.303,6.172 -1.059,3.075 0,0" /></g><g
           transform="translate(189.1021,179.1032)"
           id="g106"><path
             id="path108"
             style="fill:#c37c2a;fill-opacity:1;fill-rule:nonzero;stroke:none"
             d="m 0,0 c -31.676,1.75 -132.658,0.564 -156.77,0.253 1.786,3.996 3.858,7.45 6.276,10.202 L -7.139,9.5 C -4.41,6.517 -2.05,3.316 0,0" /></g><g
           transform="translate(172.855,196.674)"
           id="g110"><path
             id="path112"
             style="fill:#c37c2a;fill-opacity:1;fill-rule:nonzero;stroke:none"
             d="m 0,0 c -29.914,1.094 -95.005,0.426 -123.987,0.058 7.404,3.742 16.281,7.173 26.045,9.844 L -18.849,9.304 C -15.084,8.003 -11.388,6.46 -7.783,4.664 -4.985,3.271 -2.395,1.716 0,0" /></g></g></g><g
       transform="translate(73.6812,82.2321)"
       id="g114"><path
         id="path116"
         style="fill:none;stroke:#000000;stroke-width:3;stroke-linecap:butt;stroke-linejoin:miter;stroke-miterlimit:10;stroke-dasharray:none;stroke-opacity:1"
         d="M 0,0 52.967,-2.303 47.91,12.271 33.392,54.118 Z" /></g><g
       transform="translate(81.7412,96.0495)"
       id="g118"><path
         id="path120"
         style="fill:none;stroke:#000000;stroke-width:3;stroke-linecap:butt;stroke-linejoin:miter;stroke-miterlimit:10;stroke-dasharray:none;stroke-opacity:1"
         d="M 0,0 40.3,-1.151" /></g><g
       id="g122"><g
         clip-path="url(#clipPath128)"
         id="g124"><g
           transform="translate(42.9448,175.8888)"
           id="g130"><path
             id="path132"
             style="fill:#f7f5f5;fill-opacity:1;fill-rule:nonzero;stroke:none"
             d="m 0,0 c -37.292,-50.218 10.586,-53.932 10.586,-53.932 59.689,-1.932 51.221,43.384 51.221,43.384 0,0 -3.475,17.766 -27.338,21.84 C 10.103,15.452 0,0 0,0" /></g><g
           transform="translate(42.9448,175.8888)"
           id="g134"><path
             id="path136"
             style="fill:none;stroke:#191717;stroke-width:3;stroke-linecap:butt;stroke-linejoin:miter;stroke-miterlimit:10;stroke-dasharray:none;stroke-opacity:1"
             d="m 0,0 c -37.292,-50.218 10.586,-53.932 10.586,-53.932 59.689,-1.932 51.221,43.384 51.221,43.384 0,0 -3.475,17.766 -27.338,21.84 C 10.103,15.452 0,0 0,0 Z" /></g><g
           transform="translate(140.4653,178.9533)"
           id="g138"><path
             id="path140"
             style="fill:#f7f5f5;fill-opacity:1;fill-rule:nonzero;stroke:none"
             d="m 0,0 c 0,0 -24.181,-8.06 -25.332,-34.543 -1.151,-26.484 33.392,-35.695 63.329,-28.787 0,0 20.153,2.435 11.515,39.15 C 40.301,14.969 0,0 0,0" /></g><g
           transform="translate(140.4653,178.9533)"
           id="g142"><path
             id="path144"
             style="fill:none;stroke:#191717;stroke-width:3;stroke-linecap:butt;stroke-linejoin:miter;stroke-miterlimit:10;stroke-dasharray:none;stroke-opacity:1"
             d="m 0,0 c 0,0 -24.181,-8.06 -25.332,-34.543 -1.151,-26.484 33.392,-35.695 63.329,-28.787 0,0 20.153,2.435 11.515,39.15 C 40.301,14.969 0,0 0,0 Z" /></g><g
           transform="translate(37.9863,46.5368)"
           id="g146"><path
             id="path148"
             style="fill:#d30b1f;fill-opacity:1;fill-rule:nonzero;stroke:none"
             d="m 0,0 c 0,0 -4.606,28.786 62.178,26.483 66.784,-2.302 61.027,-36.846 61.027,-36.846 0,0 -2.303,-21.877 -36.846,-21.877 C 51.815,-32.24 5.757,-36.846 0,0" /></g><g
           transform="translate(37.9863,46.5368)"
           id="g150"><path
             id="path152"
             style="fill:none;stroke:#281d15;stroke-width:3;stroke-linecap:butt;stroke-linejoin:miter;stroke-miterlimit:10;stroke-dasharray:none;stroke-opacity:1"
             d="m 0,0 c 0,0 -4.606,28.786 62.178,26.483 66.784,-2.302 61.027,-36.846 61.027,-36.846 0,0 -2.303,-21.877 -36.846,-21.877 C 51.815,-32.24 5.757,-36.846 0,0 Z" /></g><g
           transform="translate(108.5913,23.1969)"
           id="g154"><path
             id="path156"
             style="fill:#fcfcfc;fill-opacity:1;fill-rule:nonzero;stroke:none"
             d="M 0,0 C -4.621,0 -9.846,0.379 -15.531,1.127 -49.918,5.712 -51.23,13.934 -52.388,21.188 l -0.122,0.753 c -0.026,0.181 -0.484,3.652 2.522,7.119 4.012,4.628 11.992,6.976 23.718,6.976 4.022,0 8.533,-0.283 13.408,-0.843 25.21,-2.891 34.765,-9.161 38.341,-13.911 2.19,-2.906 2.208,-5.27 2.144,-6.023 C 27.678,14.372 27.677,10.857 24.63,7.408 20.289,2.492 12.002,0 0,0" /></g><g
           transform="translate(82.3257,60.733)"
           id="g158"><path
             id="path160"
             style="fill:#050505;fill-opacity:1;fill-rule:nonzero;stroke:none"
             d="m 0,0 v -3 3 h -0.004 c -12.182,-0.001 -20.543,-2.522 -24.853,-7.495 -3.39,-3.91 -2.94,-7.843 -2.877,-8.278 l 0.005,-0.035 0.005,-0.033 c 0.041,-0.246 0.081,-0.494 0.12,-0.743 1.5,-9.395 5.26,-16.928 38.138,-21.312 5.754,-0.757 11.045,-1.14 15.731,-1.14 12.451,0 21.116,2.663 25.755,7.915 3.31,3.749 3.437,7.561 3.373,8.836 0.071,1.117 -0.075,3.781 -2.45,6.933 C 47.483,-8.101 34.238,-3.223 13.575,-0.853 8.643,-0.287 4.076,0 0,0 m -0.004,-3 c 3.802,0 8.182,-0.253 13.237,-0.833 41.436,-4.753 39.149,-18.423 39.149,-18.423 0,0 1.717,-13.78 -26.117,-13.78 -4.351,0 -9.42,0.336 -15.335,1.114 -34.543,4.606 -34.543,12.666 -35.695,19.574 0,0 -1.771,12.346 24.761,12.348" /></g><g
           transform="translate(58.2481,38.0123)"
           id="g162"><path
             id="path164"
             style="fill:none;stroke:#050505;stroke-width:3;stroke-linecap:butt;stroke-linejoin:miter;stroke-miterlimit:10;stroke-dasharray:none;stroke-opacity:1"
             d="M 0,0 13.13,17.736 21.19,-8.747 39.075,16.492 43.068,-6.444 55.734,13.131 61.491,-4.142 72.95,7.726" /></g><g
           transform="translate(57.5611,137.5011)"
           id="g166"><path
             id="path168"
             style="fill:#d30b1f;fill-opacity:1;fill-rule:nonzero;stroke:none"
             d="m 0,0 c 0,0 18.423,1.151 18.423,17.272 0,11.514 -11.514,11.514 -11.514,11.514 0,0 -16.121,1.151 -16.121,-17.271 C -9.212,0 0,0 0,0" /></g><g
           transform="translate(57.5611,137.5011)"
           id="g170"><path
             id="path172"
             style="fill:none;stroke:#281d15;stroke-width:2;stroke-linecap:butt;stroke-linejoin:miter;stroke-miterlimit:10;stroke-dasharray:none;stroke-opacity:1"
             d="m 0,0 c 0,0 18.423,1.151 18.423,17.272 0,11.514 -11.514,11.514 -11.514,11.514 0,0 -16.121,1.151 -16.121,-17.271 C -9.212,0 0,0 0,0 Z" /></g><g
           transform="translate(153.1314,161.6818)"
           id="g174"><path
             id="path176"
             style="fill:#d30b1f;fill-opacity:1;fill-rule:nonzero;stroke:none"
             d="M 0,0 C 0,0 -16.121,-1.152 -16.121,-14.969 -16.121,-28.786 0,-27.635 0,-27.635 c 0,0 16.12,-1.151 16.12,12.666 C 16.12,1.151 0,0 0,0" /></g><g
           transform="translate(153.1314,161.6818)"
           id="g178"><path
             id="path180"
             style="fill:none;stroke:#281d15;stroke-width:2;stroke-linecap:butt;stroke-linejoin:miter;stroke-miterlimit:10;stroke-dasharray:none;stroke-opacity:1"
             d="M 0,0 C 0,0 -16.121,-1.152 -16.121,-14.969 -16.121,-28.786 0,-27.635 0,-27.635 c 0,0 16.12,-1.151 16.12,12.666 C 16.12,1.151 0,0 0,0 Z" /></g></g></g></g></svg>